<svg id="Layer_1" xmlns="http://www.w3.org/2000/svg" viewBox="0 0 180 80"><style>.st0{fill:#fff}</style><path class="st0" d="M96.6 54.7l30.8 8.1 45.1-32.7-75.9 24.6zM140 66.2l23.1 6.1 9.4-42.2L140 66.2zM3.3 30.1L78.8 50l93.7-19.9H3.3zM8.8 7.7h6.1l4 13.9h.1l2.9-13.9h4.7l-4.3 20h-6.1l-4.1-13.8-2.9 13.8H4.5zM38 27.2c-1.7.5-3.6.8-5 .8-4.7 0-7.2-2.9-7.2-6.4 0-3.3 2.2-8.3 8.5-8.3 3.7 0 6.5 1.9 6.5 6.1 0 .6-.2 1.8-.4 2.6h-10c0 1.5.8 2.7 3.8 2.7 1.3 0 3.1-.3 4.4-1l-.6 3.5zm-1.3-7.9c0-1.5-.6-2.8-2.4-2.8-2.1 0-3.3 1.4-3.6 2.8h6zm5.8-5.7h2.2l1-4.4h4.8l-1 4.4h3.9l-.5 3.4h-4.1l-.9 3.9c-.2 1.1-.4 1.8-.4 2.4 0 .9 1.2 1.5 2.2 1.5.5 0 1.1-.2 1.6-.4l-.6 3.3c-1 .2-2.1.3-3 .3-2.5 0-5-1.2-5-4.2 0-.7.1-1.4.4-2.9L44 17h-2l.5-3.4zm30 14.1h-5.6l-.2-10.2-4.9 10.2h-5.7l-1.3-14.1h4.9v10.2h.1l4.7-10.2h5.9v10.2h.1l4.6-10.2H80zm13.9.3c-5.2 0-7.3-2.9-7.3-6.4 0-4.9 3.6-8.3 9.1-8.3 4.8 0 7.3 2.8 7.3 6.3 0 5.8-3.9 8.4-9.1 8.4m1.5-11.3c-2.4 0-3.8 2.5-3.8 4.8 0 1.9 1 3.2 2.6 3.1 2.3 0 3.7-1.9 3.7-5.1.1-1.5-.6-2.8-2.5-2.8m15.5-3.1l-.6 2.9h.1c.8-1.6 2.4-3.2 4.4-3.2.6 0 1.4.1 2.1.4l-1.1 4.3c-.6-.5-1.3-.6-2.2-.6-2.1 0-3.3 1.8-3.6 3.9l-1.4 6.5H96l2.2-10.4c.2-1.2.5-2.4.6-3.7h4.6zm9.3-5.9h4.9L115 19.5l4.8-5.9h5.5l-5.9 6.8 3.7 7.3h-5.5l-2.8-7h-.1l-1.5 7h-4.9zm16.9 0h6.1c3.8 0 8.4.1 8.4 5.1 0 3.4-2.5 5.3-5.5 5.7v.1c1.6.1 2.1 2.3 2.4 3.5l1.4 5.6h-5l-1-5.1c-.5-2.6-1.3-2.8-3.7-2.8h-.7l-1.6 7.9h-5l4.2-20zm3.2 8.3h2.1c2.3 0 4.1-.6 4.1-2.5 0-1.4-.8-2-2.4-2.1h-2.9l-.9 4.6zm20.5 9.7c-1.1 1.6-2.9 2.3-4.8 2.3-3 0-4.7-1.4-4.7-4.1 0-3.5 3.5-5.2 7.8-5.2 1 0 1.9.1 2.6.1.1-.2.1-.4.1-.6 0-1-1-1.8-2.6-1.8-1.8 0-2.9.3-4.6 1.1l.5-3.5c1.4-.5 3-.8 5.2-.8 3.4 0 6.1 1.3 6.1 4.8 0 2.2-1.3 5.4-1.8 9.6h-4l.2-1.9zm-3.3-1c2.1 0 3.3-1.4 3.7-3.3-.4-.1-1-.1-1.3-.1-2.3-.1-4 .8-4 2 0 .7.6 1.4 1.6 1.4m12.6-11.1h4.9l-3 14.1h-4.9l3-14.1zm1.3-5.9h4.9l-.8 3.6h-4.9l.8-3.6zm7.9 0h4.9l-4.2 20h-4.9z"/></svg>