<?xml version="1.0" encoding="utf-8"?>
<!-- Generator: Adobe Illustrator 16.0.1, SVG Export Plug-In . SVG Version: 6.00 Build 0)  -->
<!DOCTYPE svg PUBLIC "-//W3C//DTD SVG 1.1//EN" "http://www.w3.org/Graphics/SVG/1.1/DTD/svg11.dtd">
<svg version="1.1" id="Layer_18" xmlns="http://www.w3.org/2000/svg" xmlns:xlink="http://www.w3.org/1999/xlink" x="0px" y="0px"
	 width="96px" height="32px" viewBox="0 0 96 32" enable-background="new 0 0 96 32" xml:space="preserve">
<symbol  id="ic_x5F_expandMore_4" viewBox="0 -24 24 24">
	<g>
		<polygon fill="#353637" points="16.586,-8.586 12,-13.172 7.414,-8.586 6,-10 12,-16 18,-10 		"/>
		<polygon fill="none" points="0,0 0,-24 24,-24 24,0 		"/>
	</g>
</symbol>
<symbol  id="ic_x5F_search_x0D_" viewBox="0 -24 24 24">
	<g>
		<g>
			<path d="M15.502-14h-0.794l-0.275,0.273C15.408-12.59,16-11.115,16-9.5C16-5.91,13.09-3,9.5-3S3-5.91,3-9.5S5.91-16,9.5-16
				c1.614,0,3.088,0.592,4.225,1.566l0.276-0.274V-15.5L19-20.491L20.49-19L15.502-14z M9.5-14C7.015-14,5-11.986,5-9.5
				C5-7.015,7.015-5,9.5-5S14-7.015,14-9.5C14-11.986,11.985-14,9.5-14z"/>
		</g>
	</g>
	<polygon fill="none" points="24,-24 0,-24 0,0 24,0 	"/>
</symbol>
<path id="crown_x5F_estate" fill="#231F20" d="M31.711,14.688c0.95,0,2.354-0.104,3.646-0.599l0.085-0.032v-2.319l-0.176,0.061
	c-0.079,0.027-0.172,0.063-0.282,0.106c-0.559,0.218-1.494,0.585-2.736,0.585c-3.28,0-5.399-1.929-5.399-4.915
	c0-2.863,2.043-4.862,4.969-4.862c1.244,0,2.8,0.416,3.094,1.591l0.025,0.1h0.504V1.358l-0.085-0.032
	c-0.649-0.243-1.993-0.653-3.7-0.653c-2.311,0-4.266,0.724-5.654,2.091c-1.288,1.27-1.998,3.036-1.998,4.971
	c0,1.931,0.704,3.675,1.983,4.912C27.37,13.981,29.349,14.688,31.711,14.688z M2.484,8.263c0,0.425,0.215,0.632,0.661,0.632h1.611
	V8.536l-0.068-0.01C4.309,8.475,4.206,8.392,4.206,7.919V2.424h2.453V1.131H0v1.811h0.324l0.012-0.065
	c0.051-0.314,0.197-0.452,0.471-0.452h1.677V8.263z M20.82,20.568c0-0.304-0.249-0.554-0.554-0.554
	c-0.078,0-0.154,0.017-0.225,0.049c-0.029-0.104-0.064-0.229-0.111-0.364c0.253-0.052,0.441-0.272,0.441-0.539
	c0-0.305-0.248-0.554-0.554-0.554c-0.142,0-0.275,0.055-0.377,0.15c-0.078-0.104-0.164-0.203-0.253-0.295
	c0.126-0.104,0.201-0.259,0.201-0.426c0-0.306-0.247-0.554-0.553-0.554c-0.225,0-0.424,0.136-0.509,0.338
	c-0.136-0.074-0.268-0.138-0.402-0.194c0.056-0.089,0.086-0.189,0.086-0.294c0-0.305-0.248-0.554-0.554-0.554
	c-0.304,0-0.553,0.249-0.553,0.554c0,0.021,0.001,0.04,0.004,0.061c-0.184-0.016-0.312-0.01-0.479,0.004
	c0.012-0.044,0.017-0.089,0.017-0.136c0-0.305-0.248-0.554-0.553-0.554c-0.305,0-0.554,0.249-0.554,0.554
	c0,0.13,0.046,0.255,0.13,0.353c-0.136,0.052-0.27,0.112-0.404,0.182c-0.047-0.256-0.273-0.45-0.543-0.45
	c-0.305,0-0.554,0.247-0.554,0.553c0,0.188,0.095,0.359,0.249,0.46c-0.275,0.218-0.559,0.472-0.845,0.758l0.08,0.106
	c1.082-0.608,1.965-0.984,3.023-0.984c1,0,1.661,0.424,2.039,0.777c0.517,0.488,0.826,1.295,0.826,2.162
	c0,0.529-0.103,1.188-0.314,2.014h-1.443l0.348,1.57L16.8,24.302l0.078,0.156c0.396,0.8,0.247,1.742-0.001,2.308l-0.066,0.148
	l0.642-0.26c-0.04,0.471-0.35,1.234-1.005,1.234c-0.46,0-0.794-0.31-0.992-0.919c-0.056-0.172-0.085-0.35-0.084-0.512
	c0.001-0.239,0.071-0.42,0.182-0.469c0.021-0.01,0.046-0.014,0.076-0.014c0.202,0,0.511,0.352,0.607,0.806l0.032,0.157l0.088-0.135
	c0.103-0.157,0.295-0.539,0.369-0.979c0.018-0.113,0.039-0.282,0.04-0.438c0.001-0.338-0.11-0.644-0.304-0.838
	c-0.14-0.139-0.308-0.212-0.486-0.212c-0.252,0-0.466,0.125-0.639,0.373c-0.019,0.027-0.034,0.05-0.047,0.065
	c0.01-0.032,0.027-0.07,0.051-0.124c0.149-0.333,0.248-0.629,0.248-0.995c0-0.425-0.207-0.867-0.495-1.477
	c-0.047-0.101-0.096-0.205-0.147-0.316l-0.168-0.359l-0.166,0.36c-0.052,0.11-0.1,0.215-0.147,0.314
	c-0.288,0.61-0.494,1.053-0.494,1.478c0,0.366,0.098,0.662,0.246,0.995c0.024,0.054,0.04,0.092,0.052,0.124
	c-0.013-0.017-0.029-0.038-0.047-0.065c-0.174-0.248-0.389-0.373-0.639-0.373c-0.18,0-0.348,0.073-0.486,0.212
	c-0.195,0.194-0.306,0.5-0.304,0.838c0,0.156,0.022,0.325,0.039,0.44c0.073,0.438,0.266,0.819,0.37,0.977l0.087,0.135l0.033-0.157
	c0.096-0.454,0.404-0.806,0.606-0.806c0.031,0,0.055,0.006,0.076,0.014c0.112,0.049,0.181,0.229,0.182,0.469
	c0.001,0.162-0.028,0.34-0.084,0.512c-0.179,0.553-0.676,0.923-1.237,0.923c-0.299,0-1.029-0.099-1.325-1.011
	c-0.042-0.127-0.07-0.264-0.083-0.394l1.241,0.502l-0.065-0.148c-0.248-0.564-0.396-1.508-0.002-2.308l0.079-0.156l-1.053,0.424
	l0.779-1.461h-0.721v-2.813c0.421-0.286,0.672-0.758,0.672-1.267c0-0.367-0.11-0.608-0.277-0.854
	c-0.048-0.07-0.155-0.19-0.326-0.367c-0.12-0.123-0.246-0.265-0.27-0.391c-0.001-0.006-0.002-0.021-0.003-0.046l1.762,0.638v-2.858
	l-1.574,0.565l0.635-1.821H9.338l0.636,1.821l-1.576-0.565v2.858l1.762-0.638c0,0.024-0.002,0.04-0.002,0.046
	c-0.025,0.125-0.15,0.268-0.27,0.391c-0.172,0.177-0.278,0.297-0.327,0.367c-0.166,0.245-0.277,0.486-0.277,0.854
	c0,0.509,0.251,0.98,0.672,1.267v2.813H9.228l0.786,1.461l-1.052-0.424l0.078,0.156c0.397,0.8,0.247,1.743-0.001,2.308L8.973,26.99
	l1.241-0.502c-0.013,0.13-0.041,0.267-0.083,0.394c-0.296,0.912-1.025,1.011-1.324,1.011c-0.562,0-1.059-0.37-1.238-0.923
	c-0.056-0.172-0.086-0.35-0.084-0.512c0.002-0.239,0.072-0.42,0.181-0.469c0.022-0.01,0.046-0.014,0.077-0.014
	c0.202,0,0.512,0.352,0.606,0.806l0.033,0.157l0.087-0.135c0.104-0.157,0.296-0.539,0.369-0.979
	c0.019-0.113,0.041-0.282,0.042-0.438c0.001-0.338-0.111-0.644-0.305-0.838c-0.14-0.139-0.309-0.212-0.487-0.212
	c-0.251,0-0.466,0.125-0.639,0.373c-0.018,0.027-0.034,0.049-0.046,0.065c0.01-0.03,0.027-0.069,0.052-0.124
	c0.146-0.333,0.245-0.629,0.245-0.995c0-0.425-0.207-0.867-0.495-1.478c-0.046-0.1-0.096-0.204-0.146-0.315l-0.167-0.359
	l-0.167,0.36c-0.051,0.11-0.1,0.215-0.148,0.314c-0.286,0.61-0.494,1.053-0.494,1.478c0,0.366,0.098,0.662,0.247,0.995
	c0.024,0.054,0.04,0.092,0.051,0.122c-0.013-0.015-0.028-0.036-0.047-0.063c-0.173-0.248-0.388-0.373-0.638-0.373
	c-0.18,0-0.349,0.073-0.488,0.212c-0.195,0.194-0.305,0.5-0.304,0.838c0.001,0.156,0.022,0.325,0.04,0.44
	c0.074,0.438,0.267,0.819,0.37,0.977L5.4,26.938l0.032-0.157c0.096-0.454,0.404-0.806,0.607-0.806c0.031,0,0.057,0.004,0.077,0.014
	c0.11,0.049,0.181,0.229,0.183,0.469c0,0.16-0.029,0.34-0.086,0.512c-0.197,0.609-0.53,0.919-0.99,0.919
	c-0.656,0-0.965-0.764-1.005-1.234l0.641,0.26l-0.065-0.148c-0.249-0.565-0.397-1.508-0.001-2.308l0.077-0.156l-1.131,0.459
	l0.348-1.57H2.641c-0.211-0.826-0.313-1.484-0.313-2.014c0-0.867,0.31-1.674,0.826-2.162c0.378-0.354,1.039-0.777,2.039-0.777
	c1.058,0,1.942,0.376,3.023,0.984l0.08-0.106c-0.287-0.286-0.571-0.541-0.845-0.758c0.152-0.101,0.248-0.272,0.248-0.46
	c0-0.306-0.249-0.553-0.554-0.553c-0.268,0-0.491,0.191-0.542,0.452c-0.136-0.07-0.27-0.132-0.406-0.184
	c0.083-0.098,0.131-0.223,0.131-0.353c0-0.305-0.249-0.554-0.555-0.554c-0.305,0-0.553,0.249-0.553,0.554
	c0,0.047,0.006,0.092,0.017,0.136c-0.167-0.014-0.295-0.02-0.479-0.004c0.004-0.021,0.005-0.04,0.005-0.061
	c0-0.305-0.248-0.554-0.554-0.554c-0.305,0-0.554,0.249-0.554,0.554c0,0.104,0.031,0.205,0.087,0.294
	c-0.134,0.057-0.267,0.12-0.404,0.194c-0.084-0.202-0.283-0.338-0.508-0.338c-0.305,0-0.553,0.248-0.553,0.554
	c0,0.167,0.074,0.321,0.202,0.426c-0.091,0.092-0.176,0.192-0.253,0.295c-0.103-0.096-0.236-0.15-0.379-0.15
	c-0.303,0-0.552,0.249-0.552,0.554c0,0.267,0.187,0.487,0.441,0.539c-0.046,0.135-0.083,0.26-0.11,0.364
	c-0.072-0.032-0.148-0.049-0.224-0.049c-0.307,0-0.555,0.25-0.555,0.554c0,0.305,0.248,0.554,0.555,0.554
	c0.02,0,0.042-0.002,0.064-0.004c-0.002,0.044-0.002,0.091-0.002,0.138c0,0.045,0.002,0.092,0.004,0.14
	c-0.315-0.02-0.583,0.237-0.583,0.552c0,0.307,0.247,0.555,0.553,0.555c0.063,0,0.125-0.012,0.187-0.034
	c0.024,0.113,0.048,0.219,0.072,0.321c-0.292,0.016-0.527,0.257-0.527,0.554c0,0.305,0.25,0.553,0.553,0.553
	c0.09,0,0.179-0.022,0.257-0.064c0.026,0.087,0.052,0.175,0.081,0.264c-0.268,0.038-0.475,0.27-0.475,0.547
	c0,0.305,0.248,0.552,0.553,0.552c0.089,0,0.177-0.021,0.255-0.062c0.228,0.679,0.472,1.366,0.707,2.031l0.173,0.486
	c0.442,1.25,0.78,2.24,0.993,3.022l0.088,0.323h12.955l0.089-0.323c0.213-0.782,0.55-1.774,0.992-3.022l0.172-0.482
	c0.236-0.667,0.48-1.354,0.708-2.035c0.079,0.041,0.166,0.062,0.255,0.062c0.305,0,0.554-0.247,0.554-0.552
	c0-0.275-0.204-0.505-0.475-0.547c0.027-0.089,0.054-0.176,0.08-0.264c0.08,0.042,0.166,0.064,0.256,0.064
	c0.305,0,0.554-0.248,0.554-0.553c0-0.297-0.234-0.538-0.526-0.554c0.025-0.104,0.049-0.21,0.073-0.321
	c0.06,0.022,0.124,0.034,0.187,0.034c0.304,0,0.552-0.248,0.552-0.555c0-0.314-0.269-0.571-0.583-0.552
	c0.003-0.048,0.005-0.095,0.005-0.14c0-0.047-0.001-0.094-0.002-0.138c0.022,0.002,0.043,0.004,0.064,0.004
	C20.572,21.122,20.82,20.873,20.82,20.568z M20.942,7.174c-0.199,0.342-0.329,0.402-0.864,0.402h-2.786V5.494h3.233V4.171h-3.233
	V2.438h3.722V1.131H15.05v0.332l0.066,0.011c0.306,0.05,0.454,0.264,0.454,0.655v5.928c0,0.394,0.085,0.844,0.752,0.844h4.521
	l0.486-1.767h-0.364L20.942,7.174z M64.564,2.264l2.844,10.634c0.317,1.202,0.65,1.63,1.894,1.63h1.362l2.452-7.933l1.679,6.22
	c0.413,1.453,0.885,1.713,2.008,1.713h1.364l3.756-13.586h-2.701l-2.4,9.882l-2.677-9.784l-0.026-0.098h-1.708l-2.952,9.904
	l-2.139-8.835c-0.182-0.739-0.589-1.069-1.324-1.069h-2.43V1.48l0.132,0.002C64.274,1.488,64.487,1.974,64.564,2.264z M7.654,2.13
	v6.763h1.729V5.493h2.924v3.399h1.729V1.132h-2.249v0.331l0.066,0.011c0.304,0.05,0.453,0.264,0.453,0.656v2.048H9.384V1.132h-2.25
	v0.331l0.068,0.011C7.506,1.523,7.654,1.737,7.654,2.13z M56.147,14.902c4.142,0,7.035-2.97,7.035-7.222
	c0-1.949-0.674-3.734-1.896-5.023c-1.298-1.368-3.093-2.091-5.192-2.091c-2.132,0-3.953,0.752-5.263,2.175
	c-1.212,1.314-1.879,3.107-1.879,5.048c0,1.994,0.679,3.794,1.915,5.066C52.167,14.195,53.993,14.902,56.147,14.902z M56.094,2.819
	c2.506,0,4.19,1.996,4.19,4.97c0,2.367-1.294,4.914-4.137,4.914c-2.113,0-4.246-1.536-4.246-4.969
	C51.902,4.795,53.587,2.819,56.094,2.819z M71.599,20.65h0.526l0.018-0.112c0.091-0.555,0.35-0.802,0.836-0.802h3.292v10.447
	c0,0.739,0.378,1.102,1.154,1.102h2.549V30.74l-0.113-0.017c-0.67-0.096-0.852-0.24-0.852-1.077v-9.91h4.582v-2.145H71.599V20.65z
	 M72.287,29.781L67.05,17.592h-2.59L58.537,31.23h1.944c0.803,0,1.051-0.5,1.25-1.047l0.977-2.283h5.878l0.967,2.275
	c0.258,0.713,0.544,1.055,1.468,1.055h2.429v-0.566l-0.119-0.013C72.86,30.602,72.49,30.294,72.287,29.781z M63.497,26.023
	l2.177-5.384l2.153,5.384H63.497z M86.68,14.581v-0.135c-0.005-1.019-0.005-1.063-0.004-2.077c0-0.967,0.003-2.813,0.004-7.215
	l7.604,9.377l0.041,0.05h1.275V0.941h-1.858c-0.685,0-0.778,0.529-0.778,1.046v6.979l-6.367-7.975l-0.041-0.05H83.19v0.556
	l0.133,0.001c0.256,0.002,0.454,0.156,0.589,0.461c0.094,0.217,0.133,0.563,0.133,1.197v10.217c0,0.802,0.352,1.208,1.046,1.208
	H86.68z M95.402,28.305l-0.04,0.066c-0.346,0.601-0.587,0.713-1.522,0.713h-5.176V25.16h5.952v-2.145h-5.952V19.71h6.813v-2.118
	H85.016v0.513l0.112,0.018c0.541,0.086,0.803,0.464,0.803,1.157v10.477c0,0.685,0.148,1.473,1.313,1.473h7.934L96,28.305H95.402z
	 M55.524,29.646v-9.91h4.581v-2.145H48.114v3.059h0.524l0.018-0.112c0.092-0.555,0.351-0.802,0.838-0.802h3.292v10.447
	c0,0.739,0.378,1.102,1.155,1.102h2.548V30.74l-0.113-0.017C55.705,30.628,55.524,30.483,55.524,29.646z M43.931,23.345
	l-1.055-0.421c-0.125-0.051-0.258-0.102-0.395-0.153c-0.999-0.379-2.242-0.852-2.225-1.809c0.018-1.039,0.959-1.624,2.578-1.595
	c0.634,0.011,1.297,0.128,1.967,0.351c0.741,0.245,1.26,0.665,1.461,1.184l0.033,0.084l0.502,0.009l0.025-2.83l-0.104-0.04
	c-0.521-0.209-1.906-0.761-3.793-0.794c-1.694-0.03-3.114,0.374-4.114,1.164c-0.882,0.693-1.379,1.647-1.397,2.687
	c-0.038,2.172,1.873,3.192,3.542,3.838l1.148,0.444c1.001,0.382,2.514,0.959,2.494,2.074c-0.015,0.884-0.746,1.83-2.75,1.83h-0.111
	c-1.159-0.021-2.853-0.496-4.029-1.131l-0.196-0.104l0.002,1.402c-0.013,0.752,0.184,1.164,1.337,1.481
	c0.889,0.245,1.933,0.399,2.793,0.416c0.066,0,0.131,0.002,0.197,0.002h0.001c3.39,0,5.609-1.563,5.651-3.981
	C47.538,24.991,45.834,24.104,43.931,23.345z M35.104,28.371c-0.347,0.601-0.589,0.713-1.523,0.713h-5.175V25.16h5.952v-2.145
	h-5.952V19.71h6.813v-2.118H24.757v0.513l0.111,0.018c0.541,0.086,0.802,0.464,0.802,1.157v10.477c0,0.685,0.149,1.473,1.314,1.473
	h7.933l0.823-2.924h-0.597L35.104,28.371z M48.755,14.284c-0.952-0.638-3.237-4.092-3.875-5.422
	c1.613-0.957,2.217-2.046,2.217-3.976c0-1.786-1.141-3.283-2.838-3.726c-0.56-0.146-1.167-0.22-1.806-0.22h-5.521v0.51l0.106,0.021
	c0.675,0.141,0.808,0.59,0.808,1.32v10.635c0,0.754,0.38,1.153,1.099,1.153h1.643v-0.135c-0.006-1.145-0.004-2.309-0.003-3.437
	c0.001-0.528,0.002-1.057,0.003-1.585h1.68c0.102,0.18,0.219,0.399,0.353,0.65c0.543,1.021,1.288,2.419,2.198,3.389
	c0.928,0.988,1.887,1.063,3.245,1.063h1.056L48.755,14.284z M42.773,7.44h-2.185V2.926h1.865c1.159,0,1.907,0.876,1.907,2.23
	C44.36,6.256,43.864,7.44,42.773,7.44z"/>
</svg>
