<?xml version="1.0" encoding="utf-8"?>
<!-- Generator: Adobe Illustrator 22.0.0, SVG Export Plug-In . SVG Version: 6.00 Build 0)  -->
<!DOCTYPE svg PUBLIC "-//W3C//DTD SVG 1.1//EN" "http://www.w3.org/Graphics/SVG/1.1/DTD/svg11.dtd">
<svg version="1.1" id="Logo" xmlns="http://www.w3.org/2000/svg" xmlns:xlink="http://www.w3.org/1999/xlink" x="0px" y="0px"
	 viewBox="0 0 192.3 72.7" style="enable-background:new 0 0 192.3 72.7;" xml:space="preserve">
<style type="text/css">
	.st0{fill:#FFFFFF;}
</style>
<g>
	<path class="st0" d="M69.3,51.1c-1.3-1.4-1.9-3.6-1.9-6.6c0-2.8,0.6-5,1.8-6.5c1.2-1.5,3-2.3,5.3-2.3c2.8,0,5.4,0.7,6.5,1.1
		l-0.1-6.4c-3.8-1.2-8-1.7-11.9-0.6c-2.4,0.7-4.6,2-6.3,3.9c-1.2,1.4-2.1,3-2.7,4.8c-0.6,1.8-0.9,3.8-0.9,5.9c0,2.2,0.3,4.2,0.9,6
		s1.5,3.4,2.7,4.8c1.2,1.3,2.7,2.4,4.5,3.2s3.9,1.1,6.4,1.1c3.4,0,6.8-0.7,8-1.4v-6.4c-1,0.4-4.2,1.3-7.3,1.3
		C72.4,53.2,70.6,52.5,69.3,51.1"/>
	<path class="st0" d="M101.9,52.7c-0.9,0.3-2.1,0.4-3.5,0.4c-1.2,0-2.5-0.2-3.5-0.8c-1.2-0.7-1.8-1.9-2.2-3.2
		c-0.2-1-0.4-2.2-0.4-3.8V30h-8v15.6c0,3.1,0.4,5.6,1.2,7.4c0.8,1.9,1.9,3.3,3.2,4.3c1.3,1,2.9,1.6,4.7,1.9c1.8,0.3,3.6,0.4,5.5,0.4
		c2.2,0,4.2-0.2,6.2-0.6c2-0.4,3.6-0.8,4.8-1.2V30h-8L101.9,52.7L101.9,52.7z"/>
	<rect x="115" y="18.5" class="st0" width="8" height="8"/>
	<rect x="115" y="30" class="st0" width="8" height="28.8"/>
	<path class="st0" d="M37,46.1l4.9-14.7l4.7,14.7H37z M37,21.6l-8.6,24.5h-3.6L22,52.7h4.1l-2.3,6.2h9.1l2.1-6.2h9l2.6-6.6l3.9,12.8
		h9.9L47.2,21.6C47.2,21.6,37,21.6,37,21.6z"/>
	<polygon class="st0" points="77.6,18.5 78.1,19.7 80.3,19.7 80.3,26.4 81.9,26.4 81.9,19.7 84.3,19.7 84.3,18.5 	"/>
	<polygon class="st0" points="85.3,26.4 86.9,26.4 86.9,22.7 89.9,26.4 92,26.4 88.5,22.2 91.8,18.5 89.9,18.5 86.9,21.9 86.9,18.5 
		85.3,18.5 	"/>
	<rect x="92.9" y="18.5" class="st0" width="1.6" height="8"/>
	<polygon class="st0" points="101.6,18.5 101.6,24.3 98.4,18.5 96.4,18.5 96.4,26.4 97.9,26.4 97.9,20.6 101.1,26.4 103.1,26.4 
		103.1,18.5 	"/>
	<g>
		<path class="st0" d="M109.4,20c-0.5-0.3-1.1-0.4-1.8-0.4c-0.6,0-1.4,0.3-1.4,1c0,0.8,0.9,1,1.8,1.3c1.1,0.4,1.9,1,1.9,2.3
			c0,1.7-1.4,2.5-3.2,2.5c-0.9,0-1.7-0.2-2.3-0.5l0.2-1.4c0.6,0.4,1.3,0.6,2.1,0.6c0.8,0,1.5-0.3,1.5-1s-0.9-1-1.8-1.3
			c-0.9-0.4-1.9-0.8-1.9-2.2c0-1.7,1.5-2.5,3-2.5c0.9,0,1.5,0.2,2,0.4L109.4,20z"/>
	</g>
	<polygon class="st0" points="70.4,26.4 72.1,26.4 74.5,20.1 76.8,26.4 78.7,26.4 75.5,18.5 73.5,18.5 	"/>
	<g>
		<path class="st0" d="M168.8,30l-6.5,14l-6.5-14H139v-8.4h-4.8l-2.9,8.4H126v6.4h5v12.8c0,3.6,0.9,6.2,2.7,7.8
			c1.8,1.6,4.4,2.4,7.9,2.4c1.8,0,3.9-0.3,5.6-0.7c0,0,0-0.1,0-0.3v-6.1c-0.3,0.1-3,0.6-3.8,0.6c-1.1,0-2.4-0.2-3.2-1.1
			c-0.4-0.4-0.6-1-0.8-1.7c-0.2-0.7-0.4-1.6-0.4-2.8V36.5h11.6l7.6,16.5l-6.7,14.5h8.2L177,30H168.8z"/>
	</g>
</g>
</svg>
