<?xml version="1.0" encoding="utf-8"?>
<!-- Generator: Adobe Illustrator 22.0.0, SVG Export Plug-In . SVG Version: 6.00 Build 0)  -->
<!DOCTYPE svg PUBLIC "-//W3C//DTD SVG 1.1//EN" "http://www.w3.org/Graphics/SVG/1.1/DTD/svg11.dtd">
<svg version="1.1" id="Layer_1" xmlns="http://www.w3.org/2000/svg" xmlns:xlink="http://www.w3.org/1999/xlink" x="0px" y="0px"
	 viewBox="0 0 362 343" style="enable-background:new 0 0 362 343;" xml:space="preserve">
<style type="text/css">
	.st0{fill:#002A41;}
	.st1{fill:#0071B5;}
</style>
<g>
	<path class="st0" d="M57,12v171.9l128,73v-49.6l-85.6-48.8V81.8l85.6,48.8V85L57,12L57,12z"/>
	<path class="st1" d="M313,12v171.9l-128,73v-49.6l85.6-48.8V81.8L185,130.6V85L313,12L313,12z"/>
	<path class="st1" d="M57,329.9V158l128-73v49.6l-85.6,48.8v72.8l85.6-48.8V257L57,329.9L57,329.9z"/>
	<path class="st0" d="M313,329.9V158L185,85v49.6l85.6,48.8v72.8L185,207.4V257L313,329.9L313,329.9z"/>
</g>
</svg>
