<?xml version="1.0" encoding="UTF-8" standalone="no"?>
<!-- Created with Inkscape (http://www.inkscape.org/) -->

<svg
   xmlns:dc="http://purl.org/dc/elements/1.1/"
   xmlns:cc="http://creativecommons.org/ns#"
   xmlns:rdf="http://www.w3.org/1999/02/22-rdf-syntax-ns#"
   xmlns:svg="http://www.w3.org/2000/svg"
   xmlns="http://www.w3.org/2000/svg"
   version="1.1"
   width="900.39441"
   height="323.38281"
   id="svg2"
   xml:space="preserve"><metadata
     id="metadata8"><rdf:RDF><cc:Work
         rdf:about=""><dc:format>image/svg+xml</dc:format><dc:type
           rdf:resource="http://purl.org/dc/dcmitype/StillImage" /><dc:title></dc:title></cc:Work></rdf:RDF></metadata><defs
     id="defs6"><clipPath
       id="clipPath16"><path
         d="m 6.1e-5,595.276 841.889999,0 0,-595.276 L 6.1e-5,0 l 0,595.276 z"
         id="path18" /></clipPath><clipPath
       id="clipPath22"><path
         d="m 0,595.32 841.92,0 L 841.92,0 0,0 0,595.32 z"
         id="path24" /></clipPath><clipPath
       id="clipPath142"><path
         d="m 6.1e-5,595.276 841.889999,0 0,-595.276 L 6.1e-5,0 l 0,595.276 z"
         id="path144" /></clipPath><clipPath
       id="clipPath148"><path
         d="m 0,595.32 841.92,0 L 841.92,0 0,0 0,595.32 z"
         id="path150" /></clipPath></defs><g
     transform="matrix(1.25,0,0,-1.25,-712.64024,796.68559)"
     id="g10"><g
       transform="matrix(3.139616,0,0,3.139616,-1262.6537,-852.87483)"
       id="g3483"><g
         id="g3456"><path
           d="m 689.178,416.588 -2.382,0.951 c -2.449,0.977 -6.147,2.033 -6.1,4.712 0.041,2.363 2.087,3.965 6.124,3.895 1.64,-0.029 3.208,-0.37 4.53,-0.808 1.718,-0.568 2.987,-1.572 3.483,-2.849 l 0.63,-0.01 0.052,5.877 c -1.098,0.437 -4.238,1.711 -8.499,1.785 -7.885,0.138 -12.056,-3.957 -12.133,-8.394 -0.082,-4.666 3.999,-6.907 7.803,-8.38 l 2.13,-0.824 c 2.27,-0.88 6.334,-2.229 6.284,-5.141 -0.041,-2.304 -2.024,-4.511 -6.766,-4.428 -2.774,0.049 -6.691,1.216 -9.23,2.586 l 0.005,-2.668 c -0.027,-1.514 0.289,-2.361 2.799,-3.051 2.273,-0.625 4.636,-0.898 6.229,-0.926 7.951,-0.138 12.805,3.474 12.896,8.686 0.09,5.15 -3.276,7.157 -7.855,8.987 z m 1.379,41.332 c 0,3.29 -1.889,5.333 -4.606,5.333 l -4.509,0 0,-10.788 c 0.733,0 3.845,0 5.235,0 2.609,0 3.88,2.747 3.88,5.455 z m 9.455,-20.851 -1.394,0 c -3.152,0 -5.132,0.202 -7.104,2.304 -2.601,2.771 -4.661,7.234 -5.806,9.213 l -4.266,0 c 0,-3.88 -0.019,-7.759 0,-11.638 l -3.407,0 c -1.534,0 -2.181,0.824 -2.181,2.303 l 0,24.002 c 0,1.637 -0.304,2.911 -2.062,3.273 l 0,0.607 12.159,0 c 1.344,0 2.698,-0.145 4,-0.485 3.745,-0.976 6.183,-4.276 6.183,-8.122 0,-4.356 -1.407,-6.734 -5.093,-8.849 1.228,-2.729 6.615,-11.035 8.971,-12.608 z m 43.655,-26.547 -5.302,13.255 -5.359,-13.255 10.661,0 z m 11.946,-11.152 -5.183,0 c -1.88,0 -2.467,0.629 -3.03,2.181 l -2.264,5.335 -13.666,0 -2.281,-5.335 c -0.5,-1.375 -1.029,-2.181 -2.544,-2.181 l -3.933,0 13.11,30.183 5.453,0 11.74,-27.335 c 0.509,-1.287 1.445,-2.019 2.598,-2.141 l 0,-0.707 z m -29.114,52.61 c 0,6.878 -3.989,11.516 -9.758,11.516 -5.892,0 -9.759,-4.73 -9.759,-11.395 0,-6.323 3.555,-11.516 9.88,-11.516 6.533,0 9.637,5.799 9.637,11.395 z m 5.94,0.243 c 0,-8.63 -5.663,-16.002 -15.577,-16.002 -9.954,0 -15.941,6.829 -15.941,15.759 0,8.501 5.825,16.002 15.82,16.002 9.741,0 15.698,-7.087 15.698,-15.759 z m 73.198,-46.853 c -0.86,-1.484 -1.516,-1.757 -3.698,-1.757 l -11.98,0 0,9.454 13.435,0 0,4.244 -13.435,0 0,8.061 15.375,0 0,4.181 -23.012,0 0,-0.602 c 1.516,-0.244 2.062,-1.396 2.062,-2.909 l 0,-23.643 c 0,-1.878 0.544,-3.029 2.666,-3.029 l 17.678,0 1.689,6 -0.78,0 z m -136.011,0 c -0.861,-1.484 -1.517,-1.757 -3.698,-1.757 l -11.981,0 0,9.454 13.435,0 0,4.244 -13.435,0 0,8.061 15.376,0 0,4.181 -23.013,0 0,-0.602 c 1.517,-0.244 2.062,-1.396 2.062,-2.909 l 0,-23.643 c 0,-1.878 0.545,-3.029 2.667,-3.029 l 17.678,0 1.689,6 -0.78,0 z m 0.201,37.276 c -1.088,-0.377 -3.503,-1.576 -6.909,-1.576 -7.915,0 -12.485,4.822 -12.485,11.395 0,6.489 4.523,11.274 11.515,11.274 2.608,0 6.532,-0.849 7.274,-3.819 l 0.605,0 0,6.364 c -2.117,0.796 -5.03,1.455 -8.243,1.455 -10.84,0 -16.97,-7.139 -16.97,-15.638 0,-8.46 5.998,-15.395 17.092,-15.395 2.496,0 5.476,0.319 8.121,1.333 l 0,4.607 z m 82.211,-13.093 0,-6.303 0.63,0 c 0.241,1.456 0.997,2.061 2.183,2.061 l 7.733,0 0,-23.881 c 0,-1.351 0.572,-2.183 2.304,-2.183 l 5.454,0 0,0.668 c -1.696,0.243 -2.179,0.728 -2.179,2.728 l 0,22.668 10.339,0 0,4.242 -26.464,0 z m -53.008,0 0,-6.303 0.63,0 c 0.241,1.456 0.996,2.061 2.183,2.061 l 7.733,0 0,-23.881 c 0,-1.351 0.572,-2.183 2.304,-2.183 l 5.454,0 0,0.668 c -1.696,0.243 -2.179,0.728 -2.179,2.728 l 0,22.668 10.339,0 0,4.242 -26.464,0 z m 70.151,37.58 -5.638,-23.203 -6.347,23.203 -3.403,0 -6.917,-23.203 -5.091,21.02 c -0.389,1.591 -1.22,2.183 -2.695,2.183 l -5.184,0 0,-0.621 c 1.528,-0.014 2.071,-1.336 2.242,-1.985 l 6.423,-24.003 c 0.694,-2.644 1.379,-3.455 3.984,-3.455 l 2.852,0 5.774,18.68 4.06,-15.032 c 0.924,-3.253 1.917,-3.648 4.242,-3.648 l 2.853,0 8.31,30.064 -5.465,0 z m 36.428,0 0,-30.185 -2.436,0 -17.699,21.821 c 0,-21.33 -0.02,-17.271 0,-21.821 l -3.285,0 c -1.567,0 -2.059,0.973 -2.059,2.425 l 0,23.061 c 0,1.427 -0.083,2.267 -0.328,2.823 -0.281,0.639 -0.776,1.216 -1.603,1.221 l 0,0.655 7.154,0 14.907,-18.667 0,16.607 c 0,1.333 0.304,2.06 1.456,2.06 l 3.893,0"
           id="path48"
           style="fill:#003d73;fill-opacity:1;fill-rule:nonzero;stroke:none" /><path
           d="m 689.178,416.588 -2.382,0.951 c -2.449,0.977 -6.147,2.033 -6.1,4.712 0.041,2.363 2.087,3.965 6.124,3.895 1.64,-0.029 3.208,-0.37 4.53,-0.808 1.718,-0.568 2.987,-1.572 3.483,-2.849 l 0.63,-0.01 0.052,5.877 c -1.098,0.437 -4.238,1.711 -8.499,1.785 -7.885,0.138 -12.056,-3.957 -12.133,-8.394 -0.082,-4.666 3.999,-6.907 7.803,-8.38 l 2.13,-0.824 c 2.27,-0.88 6.334,-2.229 6.284,-5.141 -0.041,-2.304 -2.024,-4.511 -6.766,-4.428 -2.774,0.049 -6.691,1.216 -9.23,2.586 l 0.005,-2.668 c -0.027,-1.514 0.289,-2.361 2.799,-3.051 2.273,-0.625 4.636,-0.898 6.229,-0.926 7.951,-0.138 12.805,3.474 12.896,8.686 0.09,5.15 -3.276,7.157 -7.855,8.987 z"
           id="path52"
           style="fill:none;stroke:#003d73;stroke-width:0.60000002;stroke-linecap:butt;stroke-linejoin:miter;stroke-miterlimit:4;stroke-opacity:1;stroke-dasharray:none" /><path
           d="m 690.557,457.92 c 0,3.29 -1.889,5.333 -4.607,5.333 l -4.508,0 0,-10.788 c 0.733,0 3.845,0 5.235,0 2.609,0 3.88,2.747 3.88,5.455 z"
           id="path56"
           style="fill:none;stroke:#003d73;stroke-width:0.60000002;stroke-linecap:butt;stroke-linejoin:miter;stroke-miterlimit:4;stroke-opacity:1;stroke-dasharray:none" /><path
           d="m 700.012,437.069 -1.394,0 c -3.152,0 -5.132,0.202 -7.104,2.304 -2.601,2.771 -4.661,7.234 -5.806,9.213 l -4.266,0 c 0,-3.88 -0.019,-7.759 0,-11.638 l -3.407,0 c -1.534,0 -2.181,0.824 -2.181,2.303 l 0,24.002 c 0,1.638 -0.304,2.911 -2.062,3.273 l 0,0.607 12.159,0 c 1.344,0 2.698,-0.145 4.001,-0.485 3.744,-0.976 6.182,-4.276 6.182,-8.122 0,-4.356 -1.406,-6.734 -5.093,-8.849 1.228,-2.729 6.615,-11.035 8.971,-12.608 z"
           id="path60"
           style="fill:none;stroke:#003d73;stroke-width:0.60000002;stroke-linecap:butt;stroke-linejoin:miter;stroke-miterlimit:4;stroke-opacity:1;stroke-dasharray:none" /><path
           d="m 743.667,410.522 -5.302,13.255 -5.359,-13.255 10.661,0 z"
           id="path64"
           style="fill:none;stroke:#003d73;stroke-width:0.60000002;stroke-linecap:butt;stroke-linejoin:miter;stroke-miterlimit:4;stroke-opacity:1;stroke-dasharray:none" /><path
           d="m 755.613,399.37 -5.182,0 c -1.881,0 -2.468,0.629 -3.031,2.181 l -2.264,5.335 -13.665,0 -2.281,-5.335 c -0.501,-1.375 -1.03,-2.181 -2.545,-2.181 l -3.932,0 13.109,30.183 5.453,0 11.74,-27.335 c 0.51,-1.287 1.446,-2.019 2.598,-2.141 l 0,-0.707 z"
           id="path68"
           style="fill:none;stroke:#003d73;stroke-width:0.60000002;stroke-linecap:butt;stroke-linejoin:miter;stroke-miterlimit:4;stroke-opacity:1;stroke-dasharray:none" /><path
           d="m 726.499,451.98 c 0,6.878 -3.989,11.516 -9.758,11.516 -5.892,0 -9.759,-4.73 -9.759,-11.395 0,-6.323 3.555,-11.516 9.88,-11.516 6.533,0 9.637,5.799 9.637,11.395 z"
           id="path72"
           style="fill:none;stroke:#003d73;stroke-width:0.60000002;stroke-linecap:butt;stroke-linejoin:miter;stroke-miterlimit:4;stroke-opacity:1;stroke-dasharray:none" /><path
           d="m 732.44,452.223 c 0,-8.63 -5.663,-16.001 -15.577,-16.001 -9.954,0 -15.942,6.829 -15.942,15.758 0,8.501 5.826,16.002 15.821,16.002 9.741,0 15.698,-7.087 15.698,-15.759 z"
           id="path76"
           style="fill:none;stroke:#003d73;stroke-width:0.60000002;stroke-linecap:butt;stroke-linejoin:miter;stroke-miterlimit:4;stroke-opacity:1;stroke-dasharray:none" /><path
           d="m 805.638,405.371 c -0.86,-1.485 -1.516,-1.758 -3.698,-1.758 l -11.98,0 0,9.455 13.435,0 0,4.243 -13.435,0 0,8.062 15.375,0 0,4.181 -23.012,0 0,-0.603 c 1.516,-0.243 2.062,-1.395 2.062,-2.908 l 0,-23.644 c 0,-1.877 0.544,-3.029 2.666,-3.029 l 17.678,0 1.689,6.001 -0.78,0 z"
           id="path80"
           style="fill:none;stroke:#003d73;stroke-width:0.60000002;stroke-linecap:butt;stroke-linejoin:miter;stroke-miterlimit:4;stroke-opacity:1;stroke-dasharray:none" /><path
           d="m 669.626,405.371 c -0.86,-1.485 -1.516,-1.758 -3.698,-1.758 l -11.98,0 0,9.455 13.434,0 0,4.243 -13.434,0 0,8.062 15.375,0 0,4.181 -23.012,0 0,-0.603 c 1.516,-0.243 2.061,-1.395 2.061,-2.908 l 0,-23.644 c 0,-1.877 0.545,-3.029 2.667,-3.029 l 17.678,0 1.689,6.001 -0.78,0 z"
           id="path84"
           style="fill:none;stroke:#003d73;stroke-width:0.60000002;stroke-linecap:butt;stroke-linejoin:miter;stroke-miterlimit:4;stroke-opacity:1;stroke-dasharray:none" /><path
           d="m 669.828,442.647 c -1.088,-0.377 -3.503,-1.576 -6.909,-1.576 -7.915,0 -12.485,4.822 -12.485,11.395 0,6.489 4.523,11.274 11.514,11.274 2.609,0 6.533,-0.849 7.275,-3.819 l 0.605,0 0,6.364 c -2.117,0.796 -5.03,1.455 -8.243,1.455 -10.84,0 -16.97,-7.139 -16.97,-15.638 0,-8.46 5.998,-15.395 17.091,-15.395 2.497,0 5.477,0.319 8.122,1.333 l 0,4.607 z"
           id="path88"
           style="fill:none;stroke:#003d73;stroke-width:0.60000002;stroke-linecap:butt;stroke-linejoin:miter;stroke-miterlimit:4;stroke-opacity:1;stroke-dasharray:none" /><path
           d="m 752.039,429.554 0,-6.303 0.631,0 c 0.241,1.456 0.996,2.061 2.182,2.061 l 7.733,0 0,-23.881 c 0,-1.351 0.572,-2.183 2.304,-2.183 l 5.454,0 0,0.668 c -1.696,0.243 -2.179,0.728 -2.179,2.728 l 0,22.668 10.339,0 0,4.242 -26.464,0 z"
           id="path92"
           style="fill:none;stroke:#003d73;stroke-width:0.60000002;stroke-linecap:butt;stroke-linejoin:miter;stroke-miterlimit:4;stroke-opacity:1;stroke-dasharray:none" /><path
           d="m 699.031,429.554 0,-6.303 0.631,0 c 0.24,1.456 0.996,2.061 2.182,2.061 l 7.733,0 0,-23.881 c 0,-1.351 0.573,-2.183 2.304,-2.183 l 5.454,0 0,0.668 c -1.696,0.243 -2.179,0.728 -2.179,2.728 l 0,22.668 10.339,0 0,4.242 -26.464,0 z"
           id="path96"
           style="fill:none;stroke:#003d73;stroke-width:0.60000002;stroke-linecap:butt;stroke-linejoin:miter;stroke-miterlimit:4;stroke-opacity:1;stroke-dasharray:none" /><path
           d="m 769.183,467.134 -5.638,-23.203 -6.348,23.203 -3.402,0 -6.917,-23.203 -5.092,21.02 c -0.388,1.59 -1.219,2.183 -2.694,2.183 l -5.185,0 0,-0.622 c 1.529,-0.013 2.072,-1.336 2.243,-1.984 l 6.423,-24.004 c 0.693,-2.644 1.378,-3.454 3.984,-3.454 l 2.851,0 5.775,18.68 4.06,-15.032 c 0.924,-3.254 1.916,-3.648 4.242,-3.648 l 2.852,0 8.31,30.064 -5.464,0 z"
           id="path100"
           style="fill:none;stroke:#003d73;stroke-width:0.60000002;stroke-linecap:butt;stroke-linejoin:miter;stroke-miterlimit:4;stroke-opacity:1;stroke-dasharray:none" /><path
           d="m 805.61,467.134 0,-30.186 -2.435,0 -17.699,21.821 c 0,-21.329 -0.021,-17.271 0,-21.821 l -3.285,0 c -1.568,0 -2.059,0.974 -2.059,2.425 l 0,23.062 c 0,1.427 -0.083,2.266 -0.329,2.823 -0.281,0.639 -0.775,1.215 -1.602,1.22 l 0,0.656 7.153,0 14.907,-18.668 0,16.607 c 0,1.333 0.305,2.061 1.456,2.061 l 3.893,0 z"
           id="path104"
           style="fill:none;stroke:#003d73;stroke-width:0.60000002;stroke-linecap:butt;stroke-linejoin:miter;stroke-miterlimit:4;stroke-opacity:1;stroke-dasharray:none" /><path
           d="m 590.311,466.826 0,-3.729 0.398,0 c 0.138,0.828 0.567,1.171 1.243,1.171 l 3.963,0 0,-13.361 c 0,-0.768 0.327,-1.243 1.312,-1.243 l 3.458,0 0,0.47 c -0.966,0.137 -1.24,0.413 -1.24,1.552 l 0,12.582 5.536,0 0,2.558 -14.67,0"
           id="path108"
           style="fill:#003d73;fill-opacity:1;fill-rule:nonzero;stroke:none" /><path
           d="m 590.311,466.826 0,-3.729 0.398,0 c 0.138,0.828 0.567,1.171 1.243,1.171 l 3.963,0 0,-13.361 c 0,-0.768 0.327,-1.243 1.312,-1.243 l 3.458,0 0,0.47 c -0.966,0.137 -1.24,0.413 -1.24,1.552 l 0,12.582 5.536,0 0,2.558 -14.67,0 z"
           id="path112"
           style="fill:none;stroke:#003d73;stroke-width:0.36000001;stroke-linecap:butt;stroke-linejoin:miter;stroke-miterlimit:4;stroke-opacity:1;stroke-dasharray:none" /><path
           d="m 637.554,453.277 c -0.491,-0.844 -0.863,-0.999 -2.104,-0.999 l -6.471,0 0,5.061 7.299,0 0,2.626 -7.299,0 0,4.27 8.402,0 0,2.591 -13.101,0 0,-0.417 c 0.862,-0.139 1.172,-0.794 1.172,-1.656 l 0,-13.38 c 0,-1.068 0.31,-1.723 1.518,-1.723 l 10.067,0 0.999,3.627 -0.482,0"
           id="path116"
           style="fill:#003d73;fill-opacity:1;fill-rule:nonzero;stroke:none" /><path
           d="m 637.554,453.277 c -0.491,-0.844 -0.863,-0.999 -2.104,-0.999 l -6.471,0 0,5.061 7.299,0 0,2.626 -7.299,0 0,4.27 8.402,0 0,2.591 -13.101,0 0,-0.417 c 0.862,-0.139 1.172,-0.794 1.172,-1.656 l 0,-13.38 c 0,-1.068 0.31,-1.723 1.518,-1.723 l 10.067,0 0.999,3.627 -0.482,0 z"
           id="path120"
           style="fill:none;stroke:#003d73;stroke-width:0.36000001;stroke-linecap:butt;stroke-linejoin:miter;stroke-miterlimit:4;stroke-opacity:1;stroke-dasharray:none" /><path
           d="m 621.364,466.824 -4.447,0 0,-0.415 c 0.862,-0.139 1.172,-0.794 1.172,-1.656 l 0,-4.804 -6.958,0 0,6.875 -4.717,0 0,-0.415 c 0.863,-0.139 1.173,-0.794 1.173,-1.656 l 0,-15.084 3.544,0 0,7.672 6.958,0 0,-7.672 3.544,0 0,17.155 -0.269,0"
           id="path124"
           style="fill:#003d73;fill-opacity:1;fill-rule:nonzero;stroke:none" /><path
           d="m 621.364,466.824 -4.447,0 0,-0.415 c 0.862,-0.139 1.172,-0.794 1.172,-1.656 l 0,-4.804 -6.958,0 0,6.875 -4.717,0 0,-0.415 c 0.863,-0.139 1.173,-0.794 1.173,-1.656 l 0,-15.084 3.544,0 0,7.672 6.958,0 0,-7.672 3.544,0 0,17.155 -0.269,0 z"
           id="path128"
           style="fill:none;stroke:#003d73;stroke-width:0.36000001;stroke-linecap:butt;stroke-linejoin:miter;stroke-miterlimit:4;stroke-opacity:1;stroke-dasharray:none" /></g><g
         id="g3479"><path
           d="m 635.792,421.117 c -0.079,0 -0.156,-0.009 -0.23,-0.025 0.011,0.169 0.021,0.336 0.021,0.489 0,0.17 -0.004,0.336 -0.01,0.5 0.096,-0.029 0.196,-0.048 0.302,-0.048 0.607,0 1.099,0.492 1.099,1.099 0,0.606 -0.492,1.099 -1.099,1.099 -0.223,0 -0.431,-0.068 -0.604,-0.182 -0.091,0.351 -0.203,0.748 -0.357,1.17 0.583,0.027 1.049,0.502 1.049,1.092 0,0.609 -0.492,1.099 -1.1,1.099 -0.353,0 -0.663,-0.169 -0.864,-0.428 -0.222,0.314 -0.483,0.626 -0.792,0.928 0.321,0.192 0.538,0.539 0.538,0.94 0,0.606 -0.492,1.1 -1.098,1.1 -0.515,0 -0.944,-0.357 -1.063,-0.835 -0.344,0.195 -0.712,0.382 -1.125,0.551 -0.03,0.012 -0.072,0.027 -0.109,0.04 0.175,0.195 0.285,0.45 0.285,0.732 0,0.607 -0.491,1.1 -1.099,1.1 -0.606,0 -1.098,-0.493 -1.098,-1.1 0,-0.108 0.02,-0.21 0.049,-0.309 -0.213,0.025 -0.424,0.042 -0.62,0.042 -0.306,0 -0.595,-0.022 -0.876,-0.053 0.071,0.145 0.114,0.307 0.114,0.48 0,0.608 -0.492,1.099 -1.098,1.099 -0.607,0 -1.099,-0.491 -1.099,-1.099 0,-0.348 0.164,-0.654 0.417,-0.855 -0.469,-0.163 -0.905,-0.364 -1.316,-0.589 0,0.003 10e-4,0.006 10e-4,0.009 0,0.608 -0.492,1.097 -1.098,1.097 -0.607,0 -1.099,-0.489 -1.099,-1.097 0,-0.46 0.283,-0.852 0.684,-1.016 -0.75,-0.577 -1.453,-1.219 -2.074,-1.841 2.592,1.454 4.541,2.238 6.898,2.238 2.016,0 3.593,-0.754 4.703,-1.797 1.339,-1.26 1.911,-3.252 1.911,-4.987 0,-1.324 -0.288,-2.943 -0.741,-4.694 l -3.186,0 0.805,-3.641 -2.453,0.995 c 0.935,-1.889 0.563,-4.05 0,-5.332 l 1.322,0.533 c 0,-1.076 -0.744,-3.161 -2.43,-3.161 -1.296,0 -2.002,1.02 -2.378,2.178 -0.137,0.419 -0.201,0.835 -0.199,1.202 0.004,0.59 0.179,1.054 0.501,1.195 0.074,0.031 0.151,0.042 0.232,0.042 0.573,0 1.296,-0.89 1.516,-1.936 0.234,0.357 0.654,1.208 0.81,2.151 0.048,0.302 0.088,0.655 0.089,0.967 0.004,1.302 -0.747,2.219 -1.636,2.219 -0.56,0 -0.987,-0.305 -1.318,-0.78 -0.165,-0.236 -0.265,-0.336 -0.326,-0.336 -0.066,0 -0.093,0.034 -0.093,0.091 0,0.136 0.049,0.257 0.169,0.525 0.337,0.757 0.543,1.404 0.543,2.186 0,1.078 -0.616,2.212 -1.434,3.983 l -0.241,0.519 -0.242,-0.519 c -0.818,-1.771 -1.434,-2.905 -1.434,-3.983 0,-0.782 0.207,-1.429 0.543,-2.186 0.12,-0.268 0.169,-0.389 0.169,-0.525 0,-0.057 -0.027,-0.091 -0.093,-0.091 -0.061,0 -0.161,0.1 -0.325,0.336 -0.331,0.475 -0.759,0.78 -1.318,0.78 -0.89,0 -1.64,-0.917 -1.637,-2.219 10e-4,-0.312 0.041,-0.665 0.089,-0.967 0.156,-0.943 0.577,-1.794 0.811,-2.151 0.219,1.046 0.942,1.936 1.515,1.936 0.081,0 0.159,-0.011 0.232,-0.042 0.322,-0.141 0.497,-0.605 0.501,-1.195 0.002,-0.367 -0.062,-0.783 -0.199,-1.202 -0.393,-1.211 -1.523,-2.186 -2.935,-2.186 -1.112,0 -2.525,0.514 -3.134,2.384 -0.132,0.404 -0.197,0.804 -0.21,1.168 l 2.681,-1.089 c -0.564,1.282 -0.936,3.443 0,5.332 l -2.393,-0.963 1.834,3.442 -1.528,0 0,6.58 c 0.912,0.589 1.517,1.612 1.517,2.779 0,0.811 -0.257,1.333 -0.601,1.843 -0.129,0.191 -0.465,0.545 -0.721,0.807 -0.316,0.324 -0.587,0.648 -0.647,0.958 -0.008,0.044 -0.014,0.221 -0.015,0.352 l 0.189,-0.073 3.795,-1.373 0,6.026 -3.65,-1.31 1.468,4.205 -6.329,0 1.468,-4.205 -3.649,1.31 0,-6.026 3.794,1.373 0.19,0.073 c -0.002,-0.131 -0.007,-0.308 -0.015,-0.352 -0.061,-0.31 -0.332,-0.634 -0.648,-0.958 -0.256,-0.262 -0.592,-0.616 -0.72,-0.807 -0.344,-0.51 -0.601,-1.032 -0.601,-1.843 0,-1.167 0.605,-2.19 1.517,-2.779 l 0,-6.58 -1.544,0 1.849,-3.442 -2.392,0.963 c 0.935,-1.889 0.564,-4.05 0,-5.332 l 2.681,1.089 c -0.013,-0.364 -0.078,-0.764 -0.21,-1.168 -0.609,-1.87 -2.023,-2.384 -3.134,-2.384 -1.413,0 -2.543,0.975 -2.936,2.186 -0.137,0.419 -0.201,0.835 -0.199,1.202 0.004,0.59 0.179,1.054 0.502,1.195 0.073,0.031 0.15,0.042 0.232,0.042 0.572,0 1.296,-0.89 1.515,-1.936 0.234,0.357 0.654,1.208 0.81,2.151 0.049,0.302 0.089,0.655 0.09,0.967 0.003,1.302 -0.747,2.219 -1.637,2.219 -0.56,0 -0.987,-0.305 -1.318,-0.78 -0.165,-0.236 -0.265,-0.336 -0.326,-0.336 -0.066,0 -0.092,0.034 -0.092,0.091 0,0.136 0.049,0.257 0.168,0.525 0.337,0.757 0.543,1.404 0.543,2.186 0,1.078 -0.615,2.212 -1.434,3.983 l -0.241,0.519 -0.241,-0.519 c -0.819,-1.771 -1.435,-2.905 -1.435,-3.983 0,-0.782 0.207,-1.429 0.544,-2.186 0.119,-0.268 0.168,-0.389 0.168,-0.525 0,-0.057 -0.026,-0.091 -0.092,-0.091 -0.062,0 -0.162,0.1 -0.326,0.336 -0.331,0.475 -0.759,0.78 -1.318,0.78 -0.89,0 -1.64,-0.917 -1.637,-2.219 10e-4,-0.312 0.041,-0.665 0.089,-0.967 0.157,-0.943 0.577,-1.794 0.811,-2.151 0.219,1.046 0.943,1.936 1.515,1.936 0.081,0 0.159,-0.011 0.232,-0.042 0.322,-0.141 0.498,-0.605 0.501,-1.195 0.003,-0.367 -0.062,-0.783 -0.198,-1.202 -0.376,-1.158 -1.083,-2.178 -2.379,-2.178 -1.686,0 -2.43,2.085 -2.43,3.161 l 1.323,-0.533 c -0.564,1.282 -0.936,3.443 0,5.332 l -2.454,-0.995 0.806,3.641 -3.187,0 c -0.452,1.751 -0.74,3.37 -0.74,4.694 0,1.735 0.571,3.727 1.91,4.987 1.111,1.043 2.687,1.797 4.704,1.797 2.357,0 4.306,-0.784 6.898,-2.238 -0.622,0.622 -1.324,1.264 -2.075,1.841 0.402,0.164 0.685,0.556 0.685,1.016 0,0.608 -0.493,1.097 -1.1,1.097 -0.606,0 -1.098,-0.489 -1.098,-1.097 0,-0.003 10e-4,-0.006 0.002,-0.009 -0.411,0.225 -0.847,0.426 -1.316,0.589 0.252,0.201 0.417,0.507 0.417,0.855 0,0.608 -0.492,1.099 -1.099,1.099 -0.607,0 -1.099,-0.491 -1.099,-1.099 0,-0.173 0.044,-0.335 0.115,-0.48 -0.282,0.031 -0.571,0.053 -0.876,0.053 -0.197,0 -0.408,-0.017 -0.621,-0.042 0.029,0.099 0.05,0.201 0.05,0.309 0,0.607 -0.492,1.1 -1.099,1.1 -0.607,0 -1.098,-0.493 -1.098,-1.1 0,-0.282 0.109,-0.537 0.285,-0.732 -0.037,-0.013 -0.079,-0.028 -0.109,-0.04 -0.413,-0.169 -0.782,-0.356 -1.125,-0.551 -0.119,0.478 -0.548,0.835 -1.063,0.835 -0.606,0 -1.099,-0.494 -1.099,-1.1 0,-0.401 0.217,-0.748 0.538,-0.94 -0.308,-0.302 -0.569,-0.614 -0.792,-0.928 -0.2,0.259 -0.511,0.428 -0.864,0.428 -0.607,0 -1.1,-0.49 -1.1,-1.099 0,-0.59 0.467,-1.065 1.05,-1.092 -0.154,-0.422 -0.266,-0.819 -0.357,-1.17 -0.174,0.114 -0.381,0.182 -0.605,0.182 -0.606,0 -1.098,-0.493 -1.098,-1.099 0,-0.607 0.492,-1.099 1.098,-1.099 0.106,0 0.206,0.019 0.303,0.048 -0.006,-0.164 -0.01,-0.33 -0.01,-0.5 0,-0.153 0.01,-0.32 0.021,-0.489 -0.075,0.016 -0.151,0.025 -0.23,0.025 -0.607,0 -1.099,-0.491 -1.099,-1.097 0,-0.607 0.492,-1.1 1.099,-1.1 0.193,0 0.371,0.054 0.529,0.142 0.074,-0.356 0.156,-0.722 0.25,-1.104 -0.043,0.005 -0.087,0.013 -0.132,0.013 -0.607,0 -1.099,-0.492 -1.099,-1.099 0,-0.607 0.492,-1.1 1.099,-1.1 0.251,0 0.481,0.088 0.666,0.231 0.094,-0.318 0.191,-0.64 0.292,-0.966 -0.007,0 -0.014,0.002 -0.021,0.002 -0.606,0 -1.098,-0.493 -1.098,-1.099 0,-0.607 0.492,-1.099 1.098,-1.099 0.248,0 0.474,0.085 0.658,0.223 0.659,-1.979 1.39,-4.009 2.046,-5.865 0.914,-2.585 1.739,-4.983 2.242,-6.831 l 0.17,-0.618 29.013,0 0.171,0.618 c 0.502,1.848 1.327,4.246 2.241,6.831 0.657,1.856 1.387,3.886 2.047,5.865 0.184,-0.138 0.41,-0.223 0.657,-0.223 0.606,0 1.099,0.492 1.099,1.099 0,0.606 -0.493,1.099 -1.099,1.099 -0.007,0 -0.014,-0.002 -0.021,-0.002 0.101,0.326 0.199,0.648 0.293,0.966 0.185,-0.143 0.414,-0.231 0.666,-0.231 0.606,0 1.098,0.493 1.098,1.1 0,0.607 -0.492,1.099 -1.098,1.099 -0.045,0 -0.089,-0.008 -0.133,-0.013 0.095,0.382 0.177,0.748 0.25,1.104 0.158,-0.088 0.337,-0.142 0.53,-0.142 0.606,0 1.098,0.493 1.098,1.1 0,0.606 -0.492,1.097 -1.098,1.097"
           id="path132"
           style="fill:#812990;fill-opacity:1;fill-rule:nonzero;stroke:none" /><path
           d="m 635.792,421.117 c -0.079,0 -0.156,-0.009 -0.23,-0.025 0.011,0.169 0.021,0.336 0.021,0.489 0,0.17 -0.004,0.336 -0.01,0.5 0.096,-0.029 0.196,-0.048 0.302,-0.048 0.607,0 1.099,0.492 1.099,1.099 0,0.606 -0.492,1.099 -1.099,1.099 -0.223,0 -0.431,-0.068 -0.604,-0.182 -0.091,0.351 -0.203,0.748 -0.357,1.17 0.583,0.027 1.049,0.502 1.049,1.092 0,0.609 -0.492,1.099 -1.1,1.099 -0.353,0 -0.663,-0.169 -0.864,-0.428 -0.222,0.314 -0.483,0.626 -0.792,0.928 0.321,0.192 0.538,0.539 0.538,0.94 0,0.606 -0.492,1.1 -1.098,1.1 -0.515,0 -0.944,-0.357 -1.063,-0.835 -0.344,0.195 -0.712,0.382 -1.125,0.551 -0.03,0.012 -0.072,0.027 -0.109,0.04 0.175,0.195 0.285,0.45 0.285,0.732 0,0.607 -0.491,1.1 -1.099,1.1 -0.606,0 -1.098,-0.493 -1.098,-1.1 0,-0.108 0.02,-0.21 0.049,-0.309 -0.213,0.025 -0.424,0.042 -0.62,0.042 -0.306,0 -0.595,-0.022 -0.876,-0.053 0.071,0.145 0.114,0.307 0.114,0.48 0,0.608 -0.492,1.099 -1.098,1.099 -0.607,0 -1.099,-0.491 -1.099,-1.099 0,-0.348 0.164,-0.654 0.417,-0.855 -0.469,-0.163 -0.905,-0.364 -1.316,-0.589 0,0.003 10e-4,0.006 10e-4,0.009 0,0.608 -0.492,1.097 -1.098,1.097 -0.607,0 -1.099,-0.489 -1.099,-1.097 0,-0.46 0.283,-0.852 0.684,-1.016 -0.75,-0.577 -1.453,-1.219 -2.074,-1.841 2.592,1.454 4.541,2.238 6.898,2.238 2.016,0 3.593,-0.754 4.703,-1.797 1.339,-1.26 1.911,-3.252 1.911,-4.987 0,-1.324 -0.288,-2.943 -0.741,-4.694 l -3.186,0 0.805,-3.641 -2.453,0.995 c 0.935,-1.889 0.563,-4.05 0,-5.332 l 1.322,0.533 c 0,-1.076 -0.744,-3.161 -2.43,-3.161 -1.296,0 -2.002,1.02 -2.378,2.178 -0.137,0.419 -0.201,0.835 -0.199,1.202 0.004,0.59 0.179,1.054 0.501,1.195 0.074,0.031 0.151,0.042 0.232,0.042 0.573,0 1.296,-0.89 1.516,-1.936 0.234,0.357 0.654,1.208 0.81,2.151 0.048,0.302 0.088,0.655 0.089,0.967 0.004,1.302 -0.747,2.219 -1.636,2.219 -0.56,0 -0.987,-0.305 -1.318,-0.78 -0.165,-0.236 -0.265,-0.336 -0.326,-0.336 -0.066,0 -0.093,0.034 -0.093,0.091 0,0.136 0.049,0.257 0.169,0.525 0.337,0.757 0.543,1.404 0.543,2.186 0,1.078 -0.616,2.212 -1.434,3.983 l -0.241,0.519 -0.242,-0.519 c -0.818,-1.771 -1.434,-2.905 -1.434,-3.983 0,-0.782 0.207,-1.429 0.543,-2.186 0.12,-0.268 0.169,-0.389 0.169,-0.525 0,-0.057 -0.027,-0.091 -0.093,-0.091 -0.061,0 -0.161,0.1 -0.325,0.336 -0.331,0.475 -0.759,0.78 -1.318,0.78 -0.89,0 -1.64,-0.917 -1.637,-2.219 10e-4,-0.312 0.041,-0.665 0.089,-0.967 0.156,-0.943 0.577,-1.794 0.811,-2.151 0.219,1.046 0.942,1.936 1.515,1.936 0.081,0 0.159,-0.011 0.232,-0.042 0.322,-0.141 0.497,-0.605 0.501,-1.195 0.002,-0.367 -0.062,-0.783 -0.199,-1.202 -0.393,-1.211 -1.523,-2.186 -2.935,-2.186 -1.112,0 -2.525,0.514 -3.134,2.384 -0.132,0.404 -0.197,0.804 -0.21,1.168 l 2.681,-1.089 c -0.564,1.282 -0.936,3.443 0,5.332 l -2.393,-0.963 1.834,3.442 -1.528,0 0,6.58 c 0.912,0.589 1.517,1.612 1.517,2.779 0,0.811 -0.257,1.333 -0.601,1.843 -0.129,0.191 -0.465,0.545 -0.721,0.807 -0.316,0.324 -0.587,0.648 -0.647,0.958 -0.008,0.044 -0.014,0.221 -0.015,0.352 l 0.189,-0.073 3.795,-1.373 0,6.026 -3.65,-1.31 1.468,4.205 -6.329,0 1.468,-4.205 -3.649,1.31 0,-6.026 3.794,1.373 0.19,0.073 c -0.002,-0.131 -0.007,-0.308 -0.015,-0.352 -0.061,-0.31 -0.332,-0.634 -0.648,-0.958 -0.256,-0.262 -0.592,-0.616 -0.72,-0.807 -0.344,-0.51 -0.601,-1.032 -0.601,-1.843 0,-1.167 0.605,-2.19 1.517,-2.779 l 0,-6.58 -1.544,0 1.849,-3.442 -2.392,0.963 c 0.935,-1.889 0.564,-4.05 0,-5.332 l 2.681,1.089 c -0.013,-0.364 -0.078,-0.764 -0.21,-1.168 -0.609,-1.87 -2.023,-2.384 -3.134,-2.384 -1.413,0 -2.543,0.975 -2.936,2.186 -0.137,0.419 -0.201,0.835 -0.199,1.202 0.004,0.59 0.179,1.054 0.502,1.195 0.073,0.031 0.15,0.042 0.232,0.042 0.572,0 1.296,-0.89 1.515,-1.936 0.234,0.357 0.654,1.208 0.81,2.151 0.049,0.302 0.089,0.655 0.09,0.967 0.003,1.302 -0.747,2.219 -1.637,2.219 -0.56,0 -0.987,-0.305 -1.318,-0.78 -0.165,-0.236 -0.265,-0.336 -0.326,-0.336 -0.066,0 -0.092,0.034 -0.092,0.091 0,0.136 0.049,0.257 0.168,0.525 0.337,0.757 0.543,1.404 0.543,2.186 0,1.078 -0.615,2.212 -1.434,3.983 l -0.241,0.519 -0.241,-0.519 c -0.819,-1.771 -1.435,-2.905 -1.435,-3.983 0,-0.782 0.207,-1.429 0.544,-2.186 0.119,-0.268 0.168,-0.389 0.168,-0.525 0,-0.057 -0.026,-0.091 -0.092,-0.091 -0.062,0 -0.162,0.1 -0.326,0.336 -0.331,0.475 -0.759,0.78 -1.318,0.78 -0.89,0 -1.64,-0.917 -1.637,-2.219 10e-4,-0.312 0.041,-0.665 0.089,-0.967 0.157,-0.943 0.577,-1.794 0.811,-2.151 0.219,1.046 0.943,1.936 1.515,1.936 0.081,0 0.159,-0.011 0.232,-0.042 0.322,-0.141 0.498,-0.605 0.501,-1.195 0.003,-0.367 -0.062,-0.783 -0.198,-1.202 -0.376,-1.158 -1.083,-2.178 -2.379,-2.178 -1.686,0 -2.43,2.085 -2.43,3.161 l 1.323,-0.533 c -0.564,1.282 -0.936,3.443 0,5.332 l -2.454,-0.995 0.806,3.641 -3.187,0 c -0.452,1.751 -0.74,3.37 -0.74,4.694 0,1.735 0.571,3.727 1.91,4.987 1.111,1.043 2.687,1.797 4.704,1.797 2.357,0 4.306,-0.784 6.898,-2.238 -0.622,0.622 -1.324,1.264 -2.075,1.841 0.402,0.164 0.685,0.556 0.685,1.016 0,0.608 -0.493,1.097 -1.1,1.097 -0.606,0 -1.098,-0.489 -1.098,-1.097 0,-0.003 10e-4,-0.006 0.002,-0.009 -0.411,0.225 -0.847,0.426 -1.316,0.589 0.252,0.201 0.417,0.507 0.417,0.855 0,0.608 -0.492,1.099 -1.099,1.099 -0.607,0 -1.099,-0.491 -1.099,-1.099 0,-0.173 0.044,-0.335 0.115,-0.48 -0.282,0.031 -0.571,0.053 -0.876,0.053 -0.197,0 -0.408,-0.017 -0.621,-0.042 0.029,0.099 0.05,0.201 0.05,0.309 0,0.607 -0.492,1.1 -1.099,1.1 -0.607,0 -1.098,-0.493 -1.098,-1.1 0,-0.282 0.109,-0.537 0.285,-0.732 -0.037,-0.013 -0.079,-0.028 -0.109,-0.04 -0.413,-0.169 -0.782,-0.356 -1.125,-0.551 -0.119,0.478 -0.548,0.835 -1.063,0.835 -0.606,0 -1.099,-0.494 -1.099,-1.1 0,-0.401 0.217,-0.748 0.538,-0.94 -0.308,-0.302 -0.569,-0.614 -0.792,-0.928 -0.2,0.259 -0.511,0.428 -0.864,0.428 -0.607,0 -1.1,-0.49 -1.1,-1.099 0,-0.59 0.467,-1.065 1.05,-1.092 -0.154,-0.422 -0.266,-0.819 -0.357,-1.17 -0.174,0.114 -0.381,0.182 -0.605,0.182 -0.606,0 -1.098,-0.493 -1.098,-1.099 0,-0.607 0.492,-1.099 1.098,-1.099 0.106,0 0.206,0.019 0.303,0.048 -0.006,-0.164 -0.01,-0.33 -0.01,-0.5 0,-0.153 0.01,-0.32 0.021,-0.489 -0.075,0.016 -0.151,0.025 -0.23,0.025 -0.607,0 -1.099,-0.491 -1.099,-1.097 0,-0.607 0.492,-1.1 1.099,-1.1 0.193,0 0.371,0.054 0.529,0.142 0.074,-0.356 0.156,-0.722 0.25,-1.104 -0.043,0.005 -0.087,0.013 -0.132,0.013 -0.607,0 -1.099,-0.492 -1.099,-1.099 0,-0.607 0.492,-1.1 1.099,-1.1 0.251,0 0.481,0.088 0.666,0.231 0.094,-0.318 0.191,-0.64 0.292,-0.966 -0.007,0 -0.014,0.002 -0.021,0.002 -0.606,0 -1.098,-0.493 -1.098,-1.099 0,-0.607 0.492,-1.099 1.098,-1.099 0.248,0 0.474,0.085 0.658,0.223 0.659,-1.979 1.39,-4.009 2.046,-5.865 0.914,-2.585 1.739,-4.983 2.242,-6.831 l 0.17,-0.618 29.013,0 0.171,0.618 c 0.502,1.848 1.327,4.246 2.241,6.831 0.657,1.856 1.387,3.886 2.047,5.865 0.184,-0.138 0.41,-0.223 0.657,-0.223 0.606,0 1.099,0.492 1.099,1.099 0,0.606 -0.493,1.099 -1.099,1.099 -0.007,0 -0.014,-0.002 -0.021,-0.002 0.101,0.326 0.199,0.648 0.293,0.966 0.185,-0.143 0.414,-0.231 0.666,-0.231 0.606,0 1.098,0.493 1.098,1.1 0,0.607 -0.492,1.099 -1.098,1.099 -0.045,0 -0.089,-0.008 -0.133,-0.013 0.095,0.382 0.177,0.748 0.25,1.104 0.158,-0.088 0.337,-0.142 0.53,-0.142 0.606,0 1.098,0.493 1.098,1.1 0,0.606 -0.492,1.097 -1.098,1.097 z"
           id="path136"
           style="fill:none;stroke:#812990;stroke-width:0.30000001;stroke-linecap:butt;stroke-linejoin:miter;stroke-miterlimit:4;stroke-opacity:1;stroke-dasharray:none" /></g></g></g></svg>