<?xml version="1.0" encoding="utf-8"?>
<!-- Generator: Adobe Illustrator 22.0.0, SVG Export Plug-In . SVG Version: 6.00 Build 0)  -->
<!DOCTYPE svg PUBLIC "-//W3C//DTD SVG 1.1//EN" "http://www.w3.org/Graphics/SVG/1.1/DTD/svg11.dtd">
<svg version="1.1" id="Layer_1" xmlns="http://www.w3.org/2000/svg" xmlns:xlink="http://www.w3.org/1999/xlink" x="0px" y="0px"
	 viewBox="0 0 256 222" style="enable-background:new 0 0 256 222;" xml:space="preserve">
<style type="text/css">
	.st0{fill:#FF0000;}
	.st1{fill:#EB1019;}
	.st2{fill:#FFFFFF;}
	.st3{fill:#BD101D;stroke:#BD101D;}
</style>
<g>
	<path class="st0" d="M234.3,90.2V45.8H21.8v44.3H5.1V181h245.4V90.2H234.3z"/>
	<path class="st1" d="M0.7,183V85.7h16.6V41.4h221.4v44.3H255V183H0.7L0.7,183z M7.6,179.5l239.6,0.2l-1-85.1h-16.3V50.3H26.2v44.3
		H9.6L8,176.7L7.6,179.5L7.6,179.5z"/>
	<path class="st2" d="M32.8,41v20l7.6,10.2l22.3-7.6l-0.1-30.2L32.8,41z"/>
	<path class="st3" d="M37.5,143l50.2,11.4l130.7-12.2l0,39.6H37.4L37.5,143z"/>
	<path class="st3" d="M187,114.8l-13.7-5.7l-28.4-19.4L111,100.1l-73.6-5.6v26.1L84.1,134l133.3-11.8V95L187,114.8z"/>
	<path class="st2" d="M17.3,77.2l-8.4,8.9V110l11.9,5.1v-13.8l5.1,4v-9.4l11.6,0l21.4,32.3l7.9,2.2l10.7,44.5l5.6,2.3l3.9,16.3h31.1
		l-14.9-61.8l42.2-27.4l23,19.4l5.6-2.2l2.1,5.8l41.3-3.7l-3.6-9.2l-23.3-5.7l-42.1-34.3l-45.9,17.4L88.5,73.1l21.2-21.6h20.2l8,6.7
		v-6.7h15.9l-3.8-8.9l-46.6-7.4l-43,27.6L17.3,77.2z"/>
</g>
</svg>
