<?xml version="1.0" encoding="utf-8"?>
<!-- Generator: Adobe Illustrator 22.0.0, SVG Export Plug-In . SVG Version: 6.00 Build 0)  -->
<!DOCTYPE svg PUBLIC "-//W3C//DTD SVG 1.1//EN" "http://www.w3.org/Graphics/SVG/1.1/DTD/svg11.dtd">
<svg version="1.1" id="Layer_1" xmlns="http://www.w3.org/2000/svg" xmlns:xlink="http://www.w3.org/1999/xlink" x="0px" y="0px"
	 viewBox="0 0 325 305" style="enable-background:new 0 0 325 305;" xml:space="preserve">
<style type="text/css">
	.st0{fill:#264DE4;}
	.st1{fill:#2965F1;}
	.st2{fill:#EBEBEB;}
	.st3{fill:#FFFFFF;}
</style>
<g>
	<path class="st0" d="M162.8,304.1L58.7,275.2L35.4,14.8h255.1l-23.2,260.4L162.8,304.1L162.8,304.1z"/>
	<path class="st1" d="M247.4,258.5l19.9-222.5H163V282L247.4,258.5L247.4,258.5z"/>
	<path class="st2" d="M88.7,132.6l2.9,31.9H163v-31.9H88.7L88.7,132.6z"/>
	<path class="st2" d="M82.9,68l2.9,31.9H163V68H82.9L82.9,68z"/>
	<path class="st2" d="M163,215.6l-0.1,0l-35.6-9.6l-2.3-25.5H93l4.5,50.1l65.4,18.2l0.1,0V215.6L163,215.6z"/>
	<path class="st3" d="M237.1,132.6l5.8-64.6h-80v31.9h45l-2.9,32.7h-42.1v31.9h39.3l-3.7,41.4l-35.6,9.6v33.2l65.5-18.1l0.5-5.4
		l7.5-84.1L237.1,132.6L237.1,132.6z"/>
</g>
</svg>
