<?xml version="1.0" encoding="utf-8"?>
<!-- Generator: Adobe Illustrator 22.0.0, SVG Export Plug-In . SVG Version: 6.00 Build 0)  -->
<!DOCTYPE svg PUBLIC "-//W3C//DTD SVG 1.1//EN" "http://www.w3.org/Graphics/SVG/1.1/DTD/svg11.dtd">
<svg version="1.1" id="Layer_1" xmlns="http://www.w3.org/2000/svg" xmlns:xlink="http://www.w3.org/1999/xlink" x="0px" y="0px"
	 viewBox="0 0 322 293" style="enable-background:new 0 0 322 293;" xml:space="preserve">
<style type="text/css">
	.st0{fill:#E44D26;}
	.st1{fill:#F16529;}
	.st2{fill:#EBEBEB;}
	.st3{fill:#FFFFFF;}
</style>
<g>
	<path class="st0" d="M289.6,2.8l-23.2,260.4l-104.5,29L57.7,263.2L34.4,2.8H289.6L289.6,2.8z"/>
	<path class="st1" d="M162,270l84.4-23.4l19.9-222.5H162V270L162,270z"/>
	<path class="st2" d="M116.8,87.9H162V56H81.9l0.8,8.6l7.8,88H162v-31.9h-42.3L116.8,87.9L116.8,87.9z"/>
	<path class="st2" d="M124,168.5H92l4.5,50.1l65.4,18.2l0.1,0v-33.2l-0.1,0l-35.6-9.6L124,168.5L124,168.5z"/>
	<path class="st3" d="M161.9,152.6h39.3l-3.7,41.4l-35.6,9.6v33.2l65.5-18.1l0.5-5.4l7.5-84.1l0.8-8.6h-74.2V152.6L161.9,152.6z"/>
	<path class="st3" d="M161.9,87.9L161.9,87.9l77.1,0.1l0.6-7.2l1.5-16.2l0.8-8.6h-80V87.9L161.9,87.9z"/>
</g>
</svg>
