<?xml version="1.0" encoding="utf-8"?>
<!-- Generator: Adobe Illustrator 22.0.0, SVG Export Plug-In . SVG Version: 6.00 Build 0)  -->
<!DOCTYPE svg PUBLIC "-//W3C//DTD SVG 1.1//EN" "http://www.w3.org/Graphics/SVG/1.1/DTD/svg11.dtd">
<svg version="1.1" id="Layer_1" xmlns="http://www.w3.org/2000/svg" xmlns:xlink="http://www.w3.org/1999/xlink" x="0px" y="0px"
	 viewBox="0 0 357 346" style="enable-background:new 0 0 357 346;" xml:space="preserve">
<style type="text/css">
	.st0{fill:#2684FF;}
	.st1{fill:url(#SVGID_1_);}
	.st2{fill:url(#SVGID_2_);}
</style>
<g>
	<path class="st0" d="M285.7,51h-123c0,14.7,5.8,28.8,16.3,39.2c10.5,10.4,24.5,16.3,39.2,16.3h22.6v21.9
		c0,30.6,24.8,55.4,55.5,55.5V61.7C296.3,55.8,291.5,51,285.7,51z"/>
	
		<linearGradient id="SVGID_1_" gradientUnits="userSpaceOnUse" x1="28.0852" y1="31.1372" x2="27.6937" y2="31.5433" gradientTransform="matrix(133.6178 0 0 132.8356 -3519.8093 -4023.6543)">
		<stop  offset="0.18" style="stop-color:#0052CC"/>
		<stop  offset="1" style="stop-color:#2684FF"/>
	</linearGradient>
	<path class="st1" d="M224.8,112.3h-123c0,30.6,24.8,55.4,55.5,55.5H180v21.9c0,30.6,24.9,55.4,55.5,55.4V122.9
		C235.5,117,230.7,112.3,224.8,112.3z"/>
	
		<linearGradient id="SVGID_2_" gradientUnits="userSpaceOnUse" x1="28.1116" y1="31.1402" x2="27.6589" y2="31.583" gradientTransform="matrix(133.6178 0 0 132.8356 -3580.6807 -3962.4277)">
		<stop  offset="0.18" style="stop-color:#0052CC"/>
		<stop  offset="1" style="stop-color:#2684FF"/>
	</linearGradient>
	<path class="st2" d="M164,173.5H41c0,30.7,24.8,55.5,55.5,55.5h22.7v21.9c0,30.6,24.8,55.4,55.4,55.5V184.2
		C174.6,178.3,169.8,173.5,164,173.5z"/>
</g>
</svg>
