<?xml version="1.0" encoding="utf-8"?>
<!-- Generator: Adobe Illustrator 22.0.0, SVG Export Plug-In . SVG Version: 6.00 Build 0)  -->
<!DOCTYPE svg PUBLIC "-//W3C//DTD SVG 1.1//EN" "http://www.w3.org/Graphics/SVG/1.1/DTD/svg11.dtd">
<svg version="1.1" id="Layer_1" xmlns="http://www.w3.org/2000/svg" xmlns:xlink="http://www.w3.org/1999/xlink" x="0px" y="0px"
	 viewBox="0 0 256 214" style="enable-background:new 0 0 256 214;" xml:space="preserve">
<style type="text/css">
	.st0{fill:url(#path-2_2_);}
	.st1{fill:none;}
	.st2{filter:url(#Adobe_OpacityMaskFilter);}
	.st3{fill:#FFFFFF;}
	.st4{mask:url(#mask-5_1_);fill:#FAF9F8;}
	.st5{filter:url(#Adobe_OpacityMaskFilter_1_);}
	.st6{mask:url(#mask-5_2_);fill:#FAF9F8;}
	.st7{filter:url(#Adobe_OpacityMaskFilter_2_);}
	.st8{mask:url(#mask-5_3_);fill:#FAF9F8;}
	.st9{filter:url(#Adobe_OpacityMaskFilter_3_);}
	.st10{mask:url(#mask-5_4_);fill:#FAF9F8;}
	.st11{filter:url(#Adobe_OpacityMaskFilter_4_);}
	.st12{mask:url(#mask-5_5_);fill:#FAF9F8;}
</style>
<g>
	<g transform="translate(16.000000, 0.000000)">
		<g>
			
				<linearGradient id="path-2_2_" gradientUnits="userSpaceOnUse" x1="-36.4063" y1="251.1377" x2="-36.4063" y2="250.1377" gradientTransform="matrix(224.015 0 0 -109.007 8267.7764 27422.5215)">
				<stop  offset="0" style="stop-color:#2E4F82"/>
				<stop  offset="1" style="stop-color:#182E4D"/>
			</linearGradient>
			<path id="path-2_1_" class="st0" d="M224.2,134.7c0,11.6-9.7,21-21.5,21h-181c-11.8,0-21.5-9.5-21.5-21v-67
				c0-11.6,9.7-21,21.5-21h181c11.8,0,21.5,9.5,21.5,21V134.7"/>
		</g>
		<g>
			<path id="path-4_1_" class="st1" d="M-15.9,46.5H240V156H-15.9"/>
		</g>
		<defs>
			<filter id="Adobe_OpacityMaskFilter" filterUnits="userSpaceOnUse" x="206" y="46.5" width="34" height="109.5">
				<feColorMatrix  type="matrix" values="1 0 0 0 0  0 1 0 0 0  0 0 1 0 0  0 0 0 1 0"/>
			</filter>
		</defs>
		<mask maskUnits="userSpaceOnUse" x="206" y="46.5" width="34" height="109.5" id="mask-5_1_">
			<g class="st2">
				<path id="path-4_2_" class="st3" d="M-15.9,46.5H240V156H-15.9"/>
			</g>
		</mask>
		<path class="st4" d="M229.1,86.4c0-8.2,1.3-13,1.3-21.9c0-13.7-5-18.1-16.2-18.1H206v9.7h2.5c5.7,0,6.9,1.9,6.9,8.8
			c0,6.5-0.6,13-0.6,20.6c0,9.7,3.2,13.5,9.5,14.9v0.6c-6.3,1.5-9.5,5.3-9.5,14.9c0,7.6,0.6,13.7,0.6,20.6c0,7.1-1.5,9-6.9,9v0.2
			H206V156h8.2c11.1,0,16.2-4.4,16.2-18.1c0-9-1.3-13.7-1.3-21.9c0-4.4,2.7-9,10.9-9.5V95.7C231.8,95.5,229.1,90.8,229.1,86.4"/>
		<defs>
			<filter id="Adobe_OpacityMaskFilter_1_" filterUnits="userSpaceOnUse" x="103.4" y="71.9" width="49.8" height="66.8">
				<feColorMatrix  type="matrix" values="1 0 0 0 0  0 1 0 0 0  0 0 1 0 0  0 0 0 1 0"/>
			</filter>
		</defs>
		<mask maskUnits="userSpaceOnUse" x="103.4" y="71.9" width="49.8" height="66.8" id="mask-5_2_">
			<g class="st5">
				<path id="path-4_3_" class="st3" d="M-15.9,46.5H240V156H-15.9"/>
			</g>
		</mask>
		<path class="st6" d="M136,99.3c-6.5-2.5-12.4-4-12.4-8.2c0-3.2,2.5-5,7.1-5c4.6,0,8.8,1.9,13.5,5.3l8.4-11.1
			c-5.3-4-12.4-8.2-22.1-8.2c-14.3,0-24,8.2-24,19.8c0,10.3,9,15.6,16.6,18.5c6.5,2.5,12.8,4.6,12.8,8.8c0,3.2-2.5,5.3-8.2,5.3
			c-5.3,0-10.5-2.1-16.2-6.5l-8.2,12.2c6.3,5.3,16,8.8,24,8.8c16.8,0,25.9-8.8,25.9-20.4S144.2,102,136,99.3"/>
		<defs>
			<filter id="Adobe_OpacityMaskFilter_2_" filterUnits="userSpaceOnUse" x="154.2" y="71.9" width="49.8" height="66.8">
				<feColorMatrix  type="matrix" values="1 0 0 0 0  0 1 0 0 0  0 0 1 0 0  0 0 0 1 0"/>
			</filter>
		</defs>
		<mask maskUnits="userSpaceOnUse" x="154.2" y="71.9" width="49.8" height="66.8" id="mask-5_3_">
			<g class="st7">
				<path id="path-4_4_" class="st3" d="M-15.9,46.5H240V156H-15.9"/>
			</g>
		</mask>
		<path class="st8" d="M186.8,99.3c-6.3-2.5-12.2-4-12.2-8.2c0-3.2,2.5-5,7.1-5c4.6,0,8.8,1.9,13.5,5.3l8.4-11.1
			c-5.3-4-12.4-8.2-22.1-8.2c-14.3,0-24,8.2-24,19.8c0,10.3,9,15.6,16.6,18.5c6.5,2.5,12.8,4.6,12.8,8.8c0,3.2-2.5,5.3-8.2,5.3
			c-5.3,0-10.5-2.1-16.2-6.5l-8.4,12.2c6.3,5.3,16,8.8,24,8.8c16.8,0,25.9-8.8,25.9-20.4S195,102,186.8,99.3"/>
		<defs>
			<filter id="Adobe_OpacityMaskFilter_3_" filterUnits="userSpaceOnUse" x="44.3" y="71.7" width="56.3" height="66">
				<feColorMatrix  type="matrix" values="1 0 0 0 0  0 1 0 0 0  0 0 1 0 0  0 0 0 1 0"/>
			</filter>
		</defs>
		<mask maskUnits="userSpaceOnUse" x="44.3" y="71.7" width="56.3" height="66" id="mask-5_4_">
			<g class="st9">
				<path id="path-4_5_" class="st3" d="M-15.9,46.5H240V156H-15.9"/>
			</g>
		</mask>
		<path class="st10" d="M62,98.2c1.3-8.4,6.3-12.4,12.2-12.4c7.6,0,10.5,5.3,10.5,12.4H62L62,98.2z M100.7,102
			c0.2-17-9-30.3-26.7-30.3c-15.3,0-30.1,12.8-29.6,33c0,20.8,13.7,33,31.7,33c7.6,0,16-2.7,22.5-7.1l-6.3-11.1c-4.6,2.7-9,4-13.7,4
			c-8.4,0-14.9-4-16.6-13.7h38C100.2,108.3,100.7,105.3,100.7,102L100.7,102z"/>
		<defs>
			<filter id="Adobe_OpacityMaskFilter_4_" filterUnits="userSpaceOnUse" x="-16" y="46.5" width="63.9" height="109.1">
				<feColorMatrix  type="matrix" values="1 0 0 0 0  0 1 0 0 0  0 0 1 0 0  0 0 0 1 0"/>
			</filter>
		</defs>
		<mask maskUnits="userSpaceOnUse" x="-16" y="46.5" width="63.9" height="109.1" id="mask-5_5_">
			<g class="st11">
				<path id="path-4_6_" class="st3" d="M-15.9,46.5H240V156H-15.9"/>
			</g>
		</mask>
		<path class="st12" d="M43.3,123c-1.5,0-3.4-1.3-3.4-5.3V46.5H10.1c-11.3,0-16.4,4.4-16.4,18.1c0,9,1.3,14.1,1.3,21.9
			c0,4.4-2.7,9-10.9,9.5v10.9c8.2,0.2,10.9,4.8,10.9,9.2c0,7.8-1.3,12.4-1.3,21.4c0,13.7,5,18.1,16.2,18.1H18v-9.7h-2.5
			c-5.3,0-6.9-2.1-6.9-9c0-6.9,0.6-12.8,0.6-20.6c0-9.7-3.2-13.5-9.5-14.9v-0.6c6.3-1.5,9.5-5.3,9.5-14.9c0-7.6-0.6-13.7-0.6-20.6
			c0-6.9,1.5-8.8,6.9-8.8h5.7v60.3c0,12.8,4.4,21.2,17.2,21.2c4,0,7.1-0.6,9.5-1.5l-2.1-13.7C44.5,123,43.9,123,43.3,123"/>
	</g>
</g>
</svg>
