<?xml version="1.0" encoding="utf-8"?>
<!-- Generator: Adobe Illustrator 22.0.0, SVG Export Plug-In . SVG Version: 6.00 Build 0)  -->
<!DOCTYPE svg PUBLIC "-//W3C//DTD SVG 1.1//EN" "http://www.w3.org/Graphics/SVG/1.1/DTD/svg11.dtd">
<svg version="1.1" id="Layer_1" xmlns="http://www.w3.org/2000/svg" xmlns:xlink="http://www.w3.org/1999/xlink" x="0px" y="0px"
	 viewBox="0 0 512 403" style="enable-background:new 0 0 512 403;" xml:space="preserve">
<style type="text/css">
	.st0{fill:#539E43;}
	.st1{fill:#333333;}
	.st2{fill:url(#path-2_4_);}
	.st3{filter:url(#Adobe_OpacityMaskFilter);}
	.st4{fill:#FFFFFF;}
	.st5{mask:url(#mask-3_1_);}
	.st6{fill:none;}
	.st7{fill:url(#SVGID_1_);}
	.st8{filter:url(#Adobe_OpacityMaskFilter_1_);}
	.st9{mask:url(#mask-3_2_);}
	.st10{fill:url(#SVGID_2_);}
	.st11{fill:url(#SVGID_3_);}
	.st12{fill:url(#SVGID_4_);}
	.st13{fill:url(#SVGID_5_);}
	.st14{fill:url(#SVGID_6_);}
</style>
<g>
	<path class="st0" d="M253.1,347.1c-1.7,0-3.4-0.5-4.9-1.3l-15.4-9.1c-2.3-1.3-1.2-1.7-0.5-2c3.1-1,3.7-1.3,6.9-3.1
		c0.3-0.2,0.8-0.1,1.2,0.1l11.8,7.1c0.5,0.2,1,0.2,1.4,0l46.1-26.7c0.5-0.2,0.7-0.7,0.7-1.3v-53.3c0-0.6-0.2-1-0.7-1.3l-46.1-26.6
		c-0.5-0.2-1-0.2-1.4,0l-46.1,26.6c-0.5,0.2-0.7,0.8-0.7,1.3v53.3c0,0.5,0.2,1,0.7,1.3l12.6,7.3c6.8,3.5,11.1-0.6,11.1-4.6v-52.6
		c0-0.7,0.6-1.4,1.4-1.4h5.9c0.7,0,1.4,0.6,1.4,1.4v52.6c0,9.1-5,14.4-13.6,14.4c-2.7,0-4.7,0-10.6-2.9l-12.1-6.9
		c-3-1.7-4.9-5-4.9-8.4v-53.3c0-3.5,1.8-6.7,4.9-8.4l46.1-26.7c2.9-1.6,6.8-1.6,9.7,0l46.1,26.7c3,1.7,4.9,5,4.9,8.4v53.3
		c0,3.5-1.8,6.7-4.9,8.4L258,346.1C256.5,346.7,254.7,347.1,253.1,347.1z M267.3,310.5c-20.2,0-24.4-9.2-24.4-17.1
		c0-0.7,0.6-1.4,1.4-1.4h6c0.7,0,1.3,0.5,1.3,1.2c0.9,6.1,3.6,9.1,15.8,9.1c9.7,0,13.9-2.2,13.9-7.4c0-3-1.2-5.2-16.3-6.7
		c-12.6-1.3-20.5-4-20.5-14.1c0-9.4,7.9-14.9,21-14.9c14.8,0,22.1,5.1,23,16.2c0,0.3-0.1,0.7-0.3,1c-0.2,0.2-0.6,0.5-0.9,0.5h-6
		c-0.6,0-1.2-0.5-1.3-1c-1.4-6.4-5-8.4-14.4-8.4c-10.6,0-11.9,3.7-11.9,6.5c0,3.4,1.5,4.4,15.8,6.2c14.2,1.8,20.9,4.5,20.9,14.4
		C290.3,304.7,282,310.5,267.3,310.5z"/>
	<path class="st1" d="M110,138.7c0-2.1-1.2-4-3-5.1l-49-28.2c-0.8-0.5-1.7-0.7-2.7-0.8h-0.5c-0.9,0-1.8,0.3-2.7,0.8l-49,28.2
		c-1.8,1-3,3-3,5.1l0.1,75.8c0,1,0.6,2.1,1.5,2.5c0.9,0.6,2.1,0.6,2.9,0l29.1-16.6c1.8-1,3-3,3-5.1v-35.5c0-2.1,1.2-4,3-5.1
		l12.4-7.2c0.9-0.6,2-0.8,3-0.8s2.1,0.2,2.9,0.8l12.4,7.2c1.8,1,3,3,3,5.1v35.5c0,2.1,1.2,4,3,5.1l29.1,16.6c0.9,0.6,2.1,0.6,3,0
		c0.9-0.5,1.5-1.5,1.5-2.5L110,138.7L110,138.7z"/>
	<path class="st1" d="M345.6,34.3c-0.9-0.5-2.1-0.5-2.9,0c-0.9,0.6-1.5,1.5-1.5,2.5V112c0,0.7-0.3,1.4-1,1.8c-0.7,0.3-1.4,0.3-2.1,0
		l-12.3-7.1c-1.8-1-4-1-5.9,0l-49,28.3c-1.8,1-3,3-3,5.1v56.5c0,2.1,1.2,4,3,5.1l49,28.3c1.8,1,4,1,5.9,0l49-28.3c1.8-1,3-3,3-5.1
		V55.8c0-2.2-1.2-4.2-3-5.2L345.6,34.3L345.6,34.3z M341.1,178.1c0,0.6-0.2,1-0.7,1.3l-16.8,9.7c-0.5,0.2-1,0.2-1.5,0l-16.8-9.7
		c-0.5-0.2-0.7-0.8-0.7-1.3v-19.4c0-0.6,0.2-1,0.7-1.3l16.8-9.7c0.5-0.2,1-0.2,1.5,0l16.8,9.7c0.5,0.2,0.7,0.8,0.7,1.3V178.1
		L341.1,178.1z"/>
	<g transform="translate(401.047404, 70.501129)">
		<path class="st1" d="M107.6,87.7c1.8-1,2.9-3,2.9-5.1V68.9c0-2.1-1.2-4-2.9-5.1L58.9,35.6c-1.8-1-4-1-5.9,0L4,63.9
			c-1.8,1-3,3-3,5.1v56.5c0,2.1,1.2,4,3,5.1l48.7,27.7c1.8,1,4,1,5.8,0L88,141.9c0.9-0.5,1.5-1.5,1.5-2.5s-0.6-2.1-1.5-2.5
			l-49.2-28.3c-0.9-0.6-1.5-1.5-1.5-2.5V88.3c0-1,0.6-2.1,1.5-2.5L54.1,77c0.9-0.6,2.1-0.6,3,0l15.4,8.8c0.9,0.6,1.5,1.5,1.5,2.5
			v13.9c0,1,0.6,2.1,1.5,2.5c0.9,0.6,2.1,0.6,3,0L107.6,87.7L107.6,87.7z"/>
		<path class="st0" d="M55.2,85.1c0.3-0.2,0.8-0.2,1.2,0l9.4,5.4c0.3,0.2,0.6,0.6,0.6,1v10.9c0,0.5-0.2,0.8-0.6,1l-9.4,5.4
			c-0.3,0.2-0.8,0.2-1.2,0l-9.4-5.4c-0.3-0.2-0.6-0.6-0.6-1V91.6c0-0.5,0.2-0.8,0.6-1L55.2,85.1L55.2,85.1z"/>
	</g>
	<g transform="translate(134.067720, 70.501129)">
		<g>
			
				<linearGradient id="path-2_4_" gradientUnits="userSpaceOnUse" x1="-28.3586" y1="270.3805" x2="-28.7623" y2="269.6578" gradientTransform="matrix(108.9878 0 0 -124.186 3165.5015 33634.2422)">
				<stop  offset="0" style="stop-color:#41873F"/>
				<stop  offset="0.3288" style="stop-color:#418B3D"/>
				<stop  offset="0.6352" style="stop-color:#419637"/>
				<stop  offset="0.9319" style="stop-color:#3FA92D"/>
				<stop  offset="1" style="stop-color:#3FAE2A"/>
			</linearGradient>
			<path id="path-2_1_" class="st2" d="M57.9,35.8c-1.8-1-4-1-5.9,0L3.4,63.9c-1.8,1-2.9,3-2.9,5.1v56.3c0,2.1,1.2,4,2.9,5.1
				L52,158.5c1.8,1,4,1,5.9,0l48.7-28.1c1.8-1,2.9-3,2.9-5.1V69c0-2.1-1.2-4-2.9-5.1L57.9,35.8L57.9,35.8z"/>
		</g>
		<defs>
			<filter id="Adobe_OpacityMaskFilter" filterUnits="userSpaceOnUse" x="0" y="35.1" width="109.8" height="124.4">
				<feColorMatrix  type="matrix" values="1 0 0 0 0  0 1 0 0 0  0 0 1 0 0  0 0 0 1 0"/>
			</filter>
		</defs>
		<mask maskUnits="userSpaceOnUse" x="0" y="35.1" width="109.8" height="124.4" id="mask-3_1_">
			<g class="st3">
				<path id="path-2_2_" class="st4" d="M57.9,35.8c-1.8-1-4-1-5.9,0L3.4,63.9c-1.8,1-2.9,3-2.9,5.1v56.3c0,2.1,1.2,4,2.9,5.1
					L52,158.5c1.8,1,4,1,5.9,0l48.7-28.1c1.8-1,2.9-3,2.9-5.1V69c0-2.1-1.2-4-2.9-5.1L57.9,35.8L57.9,35.8z"/>
			</g>
		</mask>
		<g class="st5">
			<path class="st6" d="M51.9,35.8L3.1,63.9C1.3,65,0,66.9,0,69v56.3c0,1.4,0.6,2.7,1.5,3.7l54.8-93.8C54.9,34.9,53.3,35,51.9,35.8
				L51.9,35.8z"/>
			<path class="st6" d="M56.6,159.1c0.5-0.1,0.9-0.3,1.4-0.6l48.8-28.1c1.8-1,3-3,3-5.1V69c0-1.5-0.7-3-1.7-4L56.6,159.1L56.6,159.1
				z"/>
			
				<linearGradient id="SVGID_1_" gradientUnits="userSpaceOnUse" x1="-28.6308" y1="270.0036" x2="-27.4711" y2="270.7384" gradientTransform="matrix(106.4452 0 0 -124.1327 3095.175 33620.0234)">
				<stop  offset="0.1376" style="stop-color:#41873F"/>
				<stop  offset="0.4032" style="stop-color:#54A044"/>
				<stop  offset="0.7136" style="stop-color:#66B848"/>
				<stop  offset="0.9081" style="stop-color:#6CC04A"/>
			</linearGradient>
			<path class="st7" d="M106.7,63.9L57.8,35.8c-0.5-0.2-1-0.5-1.5-0.6L1.5,129.1c0.5,0.6,1,1,1.6,1.4L52,158.6c1.4,0.8,3,1,4.5,0.6
				l51.4-94.1C107.6,64.6,107.1,64.3,106.7,63.9L106.7,63.9z"/>
		</g>
		<defs>
			<filter id="Adobe_OpacityMaskFilter_1_" filterUnits="userSpaceOnUse" x="0" y="25.6" width="111.3" height="135.3">
				<feColorMatrix  type="matrix" values="1 0 0 0 0  0 1 0 0 0  0 0 1 0 0  0 0 0 1 0"/>
			</filter>
		</defs>
		<mask maskUnits="userSpaceOnUse" x="0" y="25.6" width="111.3" height="135.3" id="mask-3_2_">
			<g class="st8">
				<path id="path-2_3_" class="st4" d="M57.9,35.8c-1.8-1-4-1-5.9,0L3.4,63.9c-1.8,1-2.9,3-2.9,5.1v56.3c0,2.1,1.2,4,2.9,5.1
					L52,158.5c1.8,1,4,1,5.9,0l48.7-28.1c1.8-1,2.9-3,2.9-5.1V69c0-2.1-1.2-4-2.9-5.1L57.9,35.8L57.9,35.8z"/>
			</g>
		</mask>
		<g class="st9">
			<g transform="translate(0.000000, -9.246050)">
				<path class="st6" d="M109.8,134.6V78.3c0-2.1-1.3-4-3.1-5.1L57.8,45.1c-0.6-0.3-1.2-0.6-1.8-0.7l53.5,91.4
					C109.7,135.5,109.8,135,109.8,134.6L109.8,134.6z"/>
				<path class="st6" d="M3.1,73.2c-1.8,1-3.1,3-3.1,5.1v56.3c0,2.1,1.4,4,3.1,5.1L52,167.7c1.2,0.7,2.4,0.9,3.8,0.7L3.5,73.1
					L3.1,73.2L3.1,73.2z"/>
				
					<linearGradient id="SVGID_2_" gradientUnits="userSpaceOnUse" x1="-186.8488" y1="299.4337" x2="-89.4318" y2="299.4337" gradientTransform="matrix(0.9246 0 0 -0.3467 181.6491 138.8041)">
					<stop  offset="9.191646e-02" style="stop-color:#6CC04A"/>
					<stop  offset="0.2864" style="stop-color:#66B848"/>
					<stop  offset="0.5968" style="stop-color:#54A044"/>
					<stop  offset="0.8624" style="stop-color:#41873F"/>
				</linearGradient>
				<path class="st10" d="M50.4,34.8l-0.7,0.3h0.9L50.4,34.8z"/>
				
					<linearGradient id="SVGID_3_" gradientUnits="userSpaceOnUse" x1="-29.1085" y1="279.3013" x2="-28.0496" y2="279.3013" gradientTransform="matrix(106.3296 0 0 -124.2334 3093.7803 34804.957)">
					<stop  offset="9.191646e-02" style="stop-color:#6CC04A"/>
					<stop  offset="0.2864" style="stop-color:#66B848"/>
					<stop  offset="0.5968" style="stop-color:#54A044"/>
					<stop  offset="0.8624" style="stop-color:#41873F"/>
				</linearGradient>
				<path class="st11" d="M106.8,139.6c1.4-0.8,2.4-2.2,2.9-3.7L56.1,44.4c-1.4-0.2-2.9-0.1-4.2,0.7l-48.5,28l52.4,95.5
					c0.7-0.1,1.5-0.3,2.2-0.7L106.8,139.6L106.8,139.6z"/>
				
					<linearGradient id="SVGID_4_" gradientUnits="userSpaceOnUse" x1="-430.9228" y1="287.8973" x2="-333.5058" y2="287.8973" gradientTransform="matrix(0.3467 0 0 -0.809 226.6844 371.4553)">
					<stop  offset="9.191646e-02" style="stop-color:#6CC04A"/>
					<stop  offset="0.2864" style="stop-color:#66B848"/>
					<stop  offset="0.5968" style="stop-color:#54A044"/>
					<stop  offset="0.8624" style="stop-color:#41873F"/>
				</linearGradient>
				<path class="st12" d="M111.3,138.7l-0.3-0.6v0.8L111.3,138.7z"/>
				
					<linearGradient id="SVGID_5_" gradientUnits="userSpaceOnUse" x1="-31.0331" y1="279.4489" x2="-28.9865" y2="279.4489" gradientTransform="matrix(55.014 0 0 -34.326 1705.9404 9745.3369)">
					<stop  offset="9.191646e-02" style="stop-color:#6CC04A"/>
					<stop  offset="0.2864" style="stop-color:#66B848"/>
					<stop  offset="0.5968" style="stop-color:#54A044"/>
					<stop  offset="0.8624" style="stop-color:#41873F"/>
				</linearGradient>
				<path class="st13" d="M106.8,139.6L58,167.7c-0.7,0.3-1.4,0.6-2.2,0.7l0.9,1.7l54.1-31.3v-0.7l-1.4-2.3
					C109.2,137.4,108.2,138.8,106.8,139.6L106.8,139.6z"/>
				
					<linearGradient id="SVGID_6_" gradientUnits="userSpaceOnUse" x1="-28.6902" y1="282.0601" x2="-29.9524" y2="277.9333" gradientTransform="matrix(55.014 0 0 -34.326 1705.9404 9745.3369)">
					<stop  offset="0" style="stop-color:#41873F"/>
					<stop  offset="0.3288" style="stop-color:#418B3D"/>
					<stop  offset="0.6352" style="stop-color:#419637"/>
					<stop  offset="0.9319" style="stop-color:#3FA92D"/>
					<stop  offset="1" style="stop-color:#3FAE2A"/>
				</linearGradient>
				<path class="st14" d="M106.8,139.6L58,167.7c-0.7,0.3-1.4,0.6-2.2,0.7l0.9,1.7l54.1-31.3v-0.7l-1.4-2.3
					C109.2,137.4,108.2,138.8,106.8,139.6L106.8,139.6z"/>
			</g>
		</g>
	</g>
</g>
</svg>
