<?xml version="1.0" encoding="utf-8"?>
<!-- Generator: Adobe Illustrator 22.0.0, SVG Export Plug-In . SVG Version: 6.00 Build 0)  -->
<!DOCTYPE svg PUBLIC "-//W3C//DTD SVG 1.1//EN" "http://www.w3.org/Graphics/SVG/1.1/DTD/svg11.dtd">
<svg version="1.1" xmlns="http://www.w3.org/2000/svg" xmlns:xlink="http://www.w3.org/1999/xlink" x="0px" y="0px"
	 viewBox="0 0 123.4 123.4" style="enable-background:new 0 0 123.4 123.4;" xml:space="preserve">
<style type="text/css">
	.st0{display:none;}
	.st1{fill:none;stroke:#FFFFFF;stroke-width:3;}
</style>
<g id="Layer_1" class="st0">
	
		<image style="display:inline;overflow:visible;" width="60" height="60" xlink:href="pcc.png"  transform="matrix(2.056 0 0 2.056 0 0)">
	</image>
</g>
<g id="Layer_2">
	<circle class="st1" cx="60.9" cy="64.1" r="43.3"/>
</g>
<g id="Layer_3">
	<circle class="st1" cx="60.9" cy="64.1" r="21.9"/>
</g>
<g id="Layer_4">
	<path class="st1" d="M27.3,91.8c0-9.6,0-19.3,0-28.9c0.1-1.9,1.2-17.4,14.3-26c7.3-4.8,14.8-5.1,18.1-5.1"/>
	<path class="st1" d="M39.4,68.2c0,11.1,0,22.2,0,33.3"/>
</g>
<g id="Layer_5">
	<path class="st1" d="M94.7,36.4c0,9.6,0,19.3,0,28.9c-0.1,1.9-1.2,17.4-14.3,26c-7.3,4.8-14.8,5.1-18.1,5.1"/>
	<path class="st1" d="M82.5,60c0-11.1,0-22.2,0-33.3"/>
</g>
</svg>
