<?xml version="1.0" encoding="utf-8"?>
<!-- Generator: Adobe Illustrator 22.0.0, SVG Export Plug-In . SVG Version: 6.00 Build 0)  -->
<!DOCTYPE svg PUBLIC "-//W3C//DTD SVG 1.1//EN" "http://www.w3.org/Graphics/SVG/1.1/DTD/svg11.dtd">
<svg version="1.1" id="Layer_1" xmlns="http://www.w3.org/2000/svg" xmlns:xlink="http://www.w3.org/1999/xlink" x="0px" y="0px"
	 viewBox="0 0 256 232" style="enable-background:new 0 0 256 232;" xml:space="preserve">
<style type="text/css">
	.st0{fill:#CD6799;}
</style>
<g>
	<path class="st0" d="M220.3,128.5c-8.9,0-16.6,2.2-23.1,5.4c-2.4-4.7-4.8-8.9-5.2-12c-0.5-3.6-1-5.8-0.5-10.1
		c0.6-4.3,3.1-10.4,3-10.9s-0.6-2.7-5.7-2.7c-5.1,0-9.6,1-10.1,2.3c-0.5,1.4-1.5,4.4-2.1,7.6c-0.9,4.7-10.3,21.3-15.6,30
		c-1.7-3.4-3.2-6.4-3.5-8.8c-0.5-3.6-1-5.8-0.5-10.1c0.6-4.3,3.1-10.4,3-10.9c0-0.5-0.6-2.7-5.7-2.7c-5.1,0-9.6,1-10.1,2.3
		c-0.5,1.4-1.1,4.5-2.1,7.6s-13.5,30.9-16.8,38.1c-1.7,3.7-3.1,6.6-4.2,8.6l0,0c0,0,0,0.1-0.2,0.4c-0.9,1.7-1.4,2.7-1.4,2.7s0,0,0,0
		c-0.7,1.3-1.4,2.4-1.8,2.4c-0.3,0-0.8-3.4,0.1-7.9c1.9-9.7,6.3-24.7,6.2-25.2c0-0.3,0.8-2.9-2.9-4.2c-3.6-1.4-4.9,0.9-5.3,0.9
		c-0.3,0-0.6,0.8-0.6,0.8s4.1-16.9-7.7-16.9c-7.4,0-17.5,8.1-22.6,15.3c-3.2,1.7-9.9,5.4-17.2,9.4c-2.8,1.5-5.6,3.1-8.3,4.5
		c-0.2-0.2-0.4-0.4-0.6-0.6c-14.3-15.2-40.7-26-39.5-46.5c0.4-7.5,3-27,50.7-50.8c39.3-19.4,70.5-14,75.9-2.1
		c7.7,17-16.7,48.5-57.3,53.1c-15.5,1.7-23.6-4.2-25.6-6.5c-2.1-2.3-2.5-2.5-3.3-2c-1.3,0.7-0.5,2.8,0,4c1.2,3.2,6.2,8.8,14.6,11.5
		c7.5,2.4,25.6,3.8,47.6-4.7c24.6-9.5,43.8-36,38.1-58.1c-5.6-22.5-42.9-29.9-78.2-17.3C61.1,32,38.3,43.7,22,59
		C2.5,77.2-0.6,93,0.7,99.6c4.5,23.5,36.9,38.8,49.9,50.1c-0.7,0.4-1.3,0.7-1.8,1c-6.5,3.2-31.2,16.1-37.4,29.8
		c-7,15.5,1.1,26.6,6.5,28.1c16.6,4.6,33.8-3.7,42.9-17.4s8.1-31.5,3.8-39.7c0-0.1-0.1-0.2-0.2-0.3c1.7-1,3.4-2,5.1-3
		c3.3-2,6.6-3.8,9.4-5.3c-1.6,4.3-2.8,9.5-3.3,17c-0.7,8.8,2.9,20.1,7.6,24.6c2.1,2,4.6,2,6.2,2c5.5,0,8-4.6,10.7-10
		c3.4-6.6,6.4-14.3,6.4-14.3s-3.8,20.8,6.5,20.8c3.7,0,7.5-4.8,9.2-7.3v0c0,0,0.1-0.1,0.3-0.5c0.4-0.6,0.6-1,0.6-1v-0.1
		c1.5-2.6,4.8-8.5,9.8-18.4c6.4-12.7,12.6-28.5,12.6-28.5s0.6,3.9,2.5,10.3c1.1,3.8,3.5,7.9,5.3,11.9c-1.5,2.1-2.4,3.3-2.4,3.3
		s0,0,0,0c-1.2,1.6-2.5,3.3-4,5c-5.1,6.1-11.1,13-12,15c-1,2.4-0.7,4.1,1.1,5.5c1.4,1,3.8,1.2,6.2,1c4.6-0.3,7.8-1.4,9.4-2.1
		c2.5-0.9,5.4-2.2,8.1-4.2c5-3.7,8-9,7.7-15.9c-0.1-3.8-1.4-7.6-2.9-11.2c0.5-0.7,0.9-1.3,1.4-2c7.9-11.5,14-24.2,14-24.2
		s0.6,3.9,2.5,10.3c0.9,3.3,2.8,6.8,4.5,10.3c-7.4,6-12,13-13.6,17.6c-2.9,8.5-0.7,12.3,3.7,13.2c2,0.4,4.8-0.5,6.8-1.4
		c2.6-0.8,5.7-2.3,8.6-4.4c5-3.7,9.8-8.8,9.5-15.8c-0.1-3.2-1-6.3-2.1-9.3c6.3-2.6,14.4-4.1,24.8-2.8c22.2,2.6,26.6,16.5,25.7,22.3
		s-5.5,9-7,10s-2.1,1.3-1.9,2c0.2,1,0.9,1,2.2,0.8c1.8-0.3,11.7-4.7,12.1-15.4C256.4,143.3,243.4,128.4,220.3,128.5L220.3,128.5z
		 M49.1,186.2c-7.4,8-17.6,11.1-22.1,8.5c-4.8-2.8-2.9-14.6,6.2-23.1c5.5-5.2,12.6-10,17.3-12.9c1.1-0.7,2.7-1.6,4.6-2.8
		c0.3-0.2,0.5-0.3,0.5-0.3l0,0c0.4-0.2,0.7-0.5,1.1-0.7C60,167.1,56.8,177.8,49.1,186.2L49.1,186.2z M102.7,149.8
		c-2.6,6.2-7.9,22.2-11.2,21.4c-2.8-0.7-4.5-12.9-0.6-24.9c2-6,6.2-13.2,8.7-16c4-4.5,8.4-6,9.5-4.2
		C110.5,128.5,104.3,145.9,102.7,149.8L102.7,149.8z M146.9,170.9c-1.1,0.6-2.1,0.9-2.6,0.7c-0.3-0.2,0.5-0.9,0.5-0.9s5.5-6,7.7-8.7
		c1.3-1.6,2.8-3.5,4.3-5.5v0.6C156.9,164.2,150,169,146.9,170.9L146.9,170.9z M181.1,163.2c-0.8-0.6-0.7-2.4,2-8.3
		c1-2.3,3.5-6.1,7.6-9.8c0.5,1.5,0.8,2.9,0.7,4.3C191.4,158.4,184.9,161.8,181.1,163.2L181.1,163.2z"/>
</g>
</svg>
