<?xml version="1.0" encoding="utf-8"?>
<!-- Generator: Adobe Illustrator 22.0.0, SVG Export Plug-In . SVG Version: 6.00 Build 0)  -->
<!DOCTYPE svg PUBLIC "-//W3C//DTD SVG 1.1//EN" "http://www.w3.org/Graphics/SVG/1.1/DTD/svg11.dtd">
<svg version="1.1" id="Layer_1" xmlns="http://www.w3.org/2000/svg" xmlns:xlink="http://www.w3.org/1999/xlink" x="0px" y="0px"
	 viewBox="0 0 296 290" style="enable-background:new 0 0 296 290;" xml:space="preserve">
<style type="text/css">
	.st0{fill:#FFFFFF;}
	.st1{fill:#8ED6FB;}
	.st2{fill:#1C78C0;}
</style>
<g>
	<polygon class="st0" points="147,0 275,72.5 275,217.3 147,289.7 19,217.3 19,72.5 	"/>
	<path class="st1" d="M252.2,212.3l-100.9,57.1V225l62.9-34.6L252.2,212.3z M259.1,206.1V86.7L222.2,108v76.8L259.1,206.1z
		 M41.5,212.3l100.9,57.1v-44.4l-62.9-34.6L41.5,212.3L41.5,212.3z M34.6,206.1V86.7L71.5,108v76.8L34.6,206.1L34.6,206.1z
		 M38.9,78.9l103.5-58.5v43L76,99.8l-0.5,0.3L38.9,78.9L38.9,78.9z M254.7,78.9L151.3,20.4v43l66.3,36.5l0.5,0.3L254.7,78.9
		L254.7,78.9z"/>
	<path class="st2" d="M142.4,214.8l-62-34.1v-67.6l62,35.8V214.8L142.4,214.8z M151.3,214.8l62-34.1v-67.6l-62,35.8V214.8z
		 M84.5,105.3l62.3-34.2l62.3,34.2l-62.3,35.9L84.5,105.3L84.5,105.3z"/>
</g>
</svg>
